<svg width="43" height="42" viewBox="0 0 43 42" fill="none" xmlns="http://www.w3.org/2000/svg">
<g clip-path="url(#clip0_497_6181)">
<path d="M42.2754 21C42.2754 9.40202 32.8734 0 21.2754 0C9.67741 0 0.275391 9.40202 0.275391 21C0.275391 32.598 9.67741 42 21.2754 42C32.8734 42 42.2754 32.598 42.2754 21Z" fill="#33D1B5"/>
<path d="M18.159 31.5481C17.7754 31.5481 17.3918 31.4522 17.0083 31.3563C16.337 31.0686 15.7617 30.4933 15.474 29.822L14.8028 28.1919C14.7069 27.9042 14.5151 27.7124 14.2274 27.6166L12.5973 26.9453C11.9261 26.6577 11.3507 26.0823 11.0631 25.4111C10.7754 24.644 10.7754 23.8768 11.0631 23.2056L11.7343 21.3837C11.8302 21.096 11.8302 20.9042 11.7343 20.6166L10.9672 18.9864C10.8713 18.6029 10.7754 18.2193 10.7754 17.8357C10.7754 17.4522 10.8713 17.0686 10.9672 16.685C11.159 16.3015 11.3507 16.0138 11.6384 15.7261C11.9261 15.4385 12.2137 15.2467 12.5973 15.0549L14.2274 14.3837C14.5151 14.2878 14.7069 14.096 14.8028 13.8083L15.474 12.1782C15.7617 11.507 16.337 10.9316 17.0083 10.644C17.6795 10.3563 18.5425 10.3563 19.2137 10.644L20.9398 11.4111C21.2274 11.507 21.4192 11.507 21.7069 11.4111L23.337 10.7398C24.0083 10.4522 24.8713 10.4522 25.5425 10.7398C26.2137 11.0275 26.7891 11.6029 27.0768 12.2741L27.748 13.9042C27.8439 14.1919 28.0357 14.3837 28.3233 14.4796L29.9535 15.1508C30.6247 15.4385 31.2 16.0138 31.4877 16.685C31.7754 17.3563 31.7754 18.2193 31.4877 18.8905L30.9124 20.6166C30.8165 20.9042 30.8165 21.096 30.9124 21.3837L31.5836 23.0138C31.7754 23.3974 31.7754 23.7809 31.7754 24.1645C31.7754 24.5481 31.6795 24.9316 31.5836 25.3152C31.3918 25.6987 31.2 25.9864 30.9124 26.2741C30.6247 26.5618 30.337 26.7535 29.9535 26.9453L28.3233 27.6166C28.0357 27.7124 27.8439 27.9042 27.748 28.1919L27.0768 29.822C26.7891 30.4933 26.2137 31.0686 25.5425 31.3563C24.8713 31.644 24.0083 31.644 23.337 31.3563L21.7069 30.5892C21.4192 30.4933 21.2274 30.4933 20.9398 30.5892L19.3096 31.2604C18.9261 31.4522 18.5425 31.5481 18.159 31.5481ZM18.159 12.37C18.0631 12.37 17.8713 12.37 17.7754 12.4659C17.5836 12.5618 17.3918 12.7535 17.2 12.9453L16.5288 14.6714C16.2411 15.3426 15.6658 15.9179 14.9946 16.2056L13.2685 16.8768C13.1727 16.9727 13.0768 17.0686 12.9809 17.1645C12.885 17.2604 12.7891 17.3563 12.7891 17.4522C12.6932 17.5481 12.6932 17.7398 12.6932 17.8357C12.6932 17.9316 12.6932 18.1234 12.7891 18.2193L13.4603 19.8494C13.748 20.5207 13.748 21.3837 13.4603 22.0549L12.7891 23.685C12.6932 23.9727 12.6932 24.1645 12.7891 24.4522C12.885 24.644 13.0768 24.9316 13.3644 25.0275L14.9946 25.7946C15.6658 26.0823 16.2411 26.6577 16.5288 27.3289L17.2 28.959C17.2959 29.2467 17.4877 29.4385 17.7754 29.5344C18.0631 29.6303 18.2548 29.6303 18.5425 29.5344L20.1727 28.8631C20.8439 28.5755 21.7069 28.5755 22.3781 28.8631L24.0083 29.5344C24.2959 29.6303 24.4877 29.6303 24.7754 29.5344C25.0631 29.4385 25.2548 29.2467 25.3507 28.959L26.022 27.3289C26.3096 26.5618 26.885 26.0823 27.5562 25.7946L29.1864 25.1234C29.2822 25.0275 29.3781 25.0275 29.474 24.9316C29.5699 24.8357 29.6658 24.7398 29.6658 24.644C29.7617 24.5481 29.7617 24.3563 29.7617 24.2604C29.7617 24.1645 29.7617 23.9727 29.6658 23.8768L28.9946 22.2467C28.7069 21.5755 28.7069 20.7124 28.9946 20.0412L29.6658 18.4111C29.7617 18.1234 29.7617 17.9316 29.6658 17.644C29.5699 17.3563 29.3781 17.1645 29.0905 17.0686L27.6521 16.2056C26.9809 15.9179 26.4055 15.3426 26.1179 14.6714C26.1179 14.6714 26.1179 14.6714 26.1179 14.5755L25.4466 12.9453C25.3507 12.6577 25.159 12.4659 24.8713 12.37C24.5836 12.2741 24.3918 12.2741 24.1042 12.37L22.474 13.0412C21.8028 13.3289 20.9398 13.3289 20.2685 13.0412L18.5425 12.4659C18.4466 12.37 18.2548 12.37 18.159 12.37ZM20.3644 23.8768C20.0768 23.8768 19.885 23.7809 19.6932 23.5892L17.7754 21.6713C17.3918 21.2878 17.3918 20.7124 17.7754 20.3289C18.159 19.9453 18.7343 19.9453 19.1179 20.3289L20.3644 21.5755L24.0083 17.9316C24.3918 17.5481 24.9672 17.5481 25.3507 17.9316C25.7343 18.3152 25.7343 18.8905 25.3507 19.2741L21.0357 23.5892C20.8439 23.7809 20.6521 23.8768 20.3644 23.8768Z" fill="white"/>
</g>
<defs>
<clipPath id="clip0_497_6181">
<rect width="43" height="42" fill="white"/>
</clipPath>
</defs>
</svg>
