<svg width="46" height="46" viewBox="0 0 46 46" fill="none" xmlns="http://www.w3.org/2000/svg">
<g filter="url(#filter0_d_346_413)">
<path d="M37 17C37 9.26801 30.732 3 23 3C15.268 3 9 9.26801 9 17C9 24.732 15.268 31 23 31C30.732 31 37 24.732 37 17Z" fill="#33D1B5"/>
</g>
<path d="M21.2557 23.7467C20.9999 23.7467 20.7442 23.6827 20.4885 23.6188C20.041 23.427 19.6575 23.0435 19.4657 22.5959L19.0182 21.5092C18.9543 21.3174 18.8264 21.1895 18.6346 21.1257L17.5479 20.6781C17.1004 20.4864 16.7168 20.1028 16.5251 19.6553C16.3333 19.1439 16.3333 18.6325 16.5251 18.185L16.9725 16.9704C17.0365 16.7786 17.0365 16.6507 16.9725 16.459L16.4611 15.3722C16.3972 15.1165 16.3333 14.8608 16.3333 14.6051C16.3333 14.3494 16.3972 14.0937 16.4611 13.8379C16.589 13.5823 16.7168 13.3905 16.9086 13.1987C17.1004 13.0069 17.2921 12.8791 17.5479 12.7512L18.6346 12.3037C18.8264 12.2398 18.9543 12.1119 19.0182 11.9201L19.4657 10.8334C19.6575 10.3859 20.041 10.0023 20.4885 9.8106C20.936 9.6188 21.5113 9.6188 21.9588 9.8106L23.1095 10.322C23.3013 10.3859 23.4291 10.3859 23.6209 10.322L24.7077 9.87446C25.1552 9.68273 25.7305 9.68273 26.178 9.87446C26.6255 10.0663 27.0091 10.4499 27.2009 10.8973L27.6483 11.9841C27.7123 12.1759 27.8401 12.3037 28.0319 12.3677L29.1187 12.8151C29.5661 13.0069 29.9497 13.3905 30.1415 13.8379C30.3333 14.2855 30.3333 14.8608 30.1415 15.3083L29.7579 16.459C29.694 16.6507 29.694 16.7786 29.7579 16.9704L30.2054 18.0571C30.3333 18.3129 30.3333 18.5685 30.3333 18.8243C30.3333 19.08 30.2693 19.3357 30.2054 19.5914C30.0775 19.8471 29.9497 20.0389 29.7579 20.2307C29.5661 20.4225 29.3743 20.5503 29.1187 20.6781L28.0319 21.1257C27.8401 21.1895 27.7123 21.3174 27.6483 21.5092L27.2009 22.5959C27.0091 23.0435 26.6255 23.427 26.178 23.6188C25.7305 23.8106 25.1552 23.8106 24.7077 23.6188L23.6209 23.1074C23.4291 23.0435 23.3013 23.0435 23.1095 23.1074L22.0227 23.5549C21.7671 23.6827 21.5113 23.7467 21.2557 23.7467ZM21.2557 10.9613C21.1917 10.9613 21.0639 10.9613 20.9999 11.0252C20.8721 11.0891 20.7442 11.2169 20.6163 11.3448L20.1689 12.4955C19.9771 12.943 19.5935 13.3265 19.1461 13.5183L17.9953 13.9658C17.9315 14.0297 17.8675 14.0937 17.8036 14.1576C17.7397 14.2215 17.6757 14.2855 17.6757 14.3494C17.6118 14.4133 17.6118 14.5411 17.6118 14.6051C17.6118 14.669 17.6118 14.7969 17.6757 14.8608L18.1232 15.9475C18.315 16.3951 18.315 16.9704 18.1232 17.4179L17.6757 18.5046C17.6118 18.6964 17.6118 18.8243 17.6757 19.0161C17.7397 19.1439 17.8675 19.3357 18.0593 19.3996L19.1461 19.911C19.5935 20.1028 19.9771 20.4864 20.1689 20.9339L20.6163 22.0206C20.6803 22.2124 20.8081 22.3403 20.9999 22.4042C21.1917 22.4681 21.3195 22.4681 21.5113 22.4042L22.5981 21.9567C23.0456 21.7649 23.6209 21.7649 24.0684 21.9567L25.1552 22.4042C25.3469 22.4681 25.4748 22.4681 25.6666 22.4042C25.8584 22.3403 25.9862 22.2124 26.0501 22.0206L26.4977 20.9339C26.6894 20.4225 27.073 20.1028 27.5205 19.911L28.6073 19.4635C28.6711 19.3996 28.7351 19.3996 28.799 19.3357C28.8629 19.2717 28.9269 19.2078 28.9269 19.1439C28.9908 19.08 28.9908 18.9521 28.9908 18.8882C28.9908 18.8243 28.9908 18.6964 28.9269 18.6325L28.4794 17.5457C28.2876 17.0983 28.2876 16.5229 28.4794 16.0754L28.9269 14.9887C28.9908 14.7969 28.9908 14.669 28.9269 14.4773C28.8629 14.2855 28.7351 14.1576 28.5433 14.0937L27.5844 13.5183C27.1369 13.3265 26.7533 12.943 26.5616 12.4955C26.5616 12.4955 26.5616 12.4955 26.5616 12.4316L26.1141 11.3448C26.0501 11.1531 25.9223 11.0252 25.7305 10.9613C25.5387 10.8973 25.4109 10.8973 25.2191 10.9613L24.1323 11.4087C23.6849 11.6005 23.1095 11.6005 22.662 11.4087L21.5113 11.0252C21.4474 10.9613 21.3195 10.9613 21.2557 10.9613ZM22.7259 18.6325C22.5342 18.6325 22.4063 18.5685 22.2785 18.4407L20.9999 17.1621C20.7442 16.9065 20.7442 16.5229 20.9999 16.2672C21.2557 16.0115 21.6392 16.0115 21.8949 16.2672L22.7259 17.0983L25.1552 14.669C25.4109 14.4133 25.7945 14.4133 26.0501 14.669C26.3059 14.9247 26.3059 15.3083 26.0501 15.564L23.1735 18.4407C23.0456 18.5685 22.9177 18.6325 22.7259 18.6325Z" fill="white"/>
<defs>
<filter id="filter0_d_346_413" x="0" y="0" width="46" height="46" filterUnits="userSpaceOnUse" color-interpolation-filters="sRGB">
<feFlood flood-opacity="0" result="BackgroundImageFix"/>
<feColorMatrix in="SourceAlpha" type="matrix" values="0 0 0 0 0 0 0 0 0 0 0 0 0 0 0 0 0 0 127 0" result="hardAlpha"/>
<feOffset dy="6"/>
<feGaussianBlur stdDeviation="4.5"/>
<feComposite in2="hardAlpha" operator="out"/>
<feColorMatrix type="matrix" values="0 0 0 0 0 0 0 0 0 0 0 0 0 0 0 0 0 0 0.13 0"/>
<feBlend mode="normal" in2="BackgroundImageFix" result="effect1_dropShadow_346_413"/>
<feBlend mode="normal" in="SourceGraphic" in2="effect1_dropShadow_346_413" result="shape"/>
</filter>
</defs>
</svg>
