<svg width="224" height="176" viewBox="0 0 224 176" fill="none" xmlns="http://www.w3.org/2000/svg">
<g filter="url(#filter0_d_497_6203)">
<rect x="15" y="5" width="194" height="146" rx="12" fill="white"/>
</g>
<g clip-path="url(#clip0_497_6203)">
<path d="M35.3682 51.3682C35.3682 37.5605 46.5605 26.3682 60.3682 26.3682C74.1758 26.3682 85.3682 37.5625 85.3682 51.3682C85.3682 65.1738 74.1748 76.3682 60.3682 76.3682C46.5615 76.3682 35.3682 65.1758 35.3682 51.3682Z" fill="#33D1B5"/>
<path d="M53.2393 50.6338L54.8271 44.748H56.2197L58.9707 55.0088L59.9775 51.1729L60.6758 50.6318H63.3066L64.8945 44.7461H66.29L67.877 50.6318H72.4473C72.7731 49.5911 72.942 48.5075 72.9482 47.417C72.9482 43.1982 69.6963 39.79 65.708 39.79C63.6191 39.79 61.6816 40.7588 60.3643 42.2314C59.0488 40.7588 57.1523 39.79 55.0605 39.79C51.0723 39.79 47.7822 43.1982 47.7822 47.417C47.7822 48.541 48.0146 49.626 48.3242 50.6318L53.2393 50.6338Z" fill="white"/>
<path d="M67.3018 52.1045H71.8721C68.8086 58.6924 60.3682 62.9453 60.3682 62.9453C60.3682 62.9453 51.9697 58.6875 48.9072 52.1055H53.79L54.4863 51.5625L55.5322 47.7305L58.2783 57.9912H59.6709L61.2588 52.1045H63.8545L64.5508 51.5615L65.5566 47.7295L66.6016 51.5635L67.3018 52.1045Z" fill="white"/>
</g>
<path d="M135.817 58.1867C132.052 45.1781 139.545 31.5816 152.553 27.8167C165.562 24.0518 179.159 31.5466 182.923 44.5533C186.688 57.5601 179.194 71.1587 166.187 74.9233C153.179 78.6879 139.582 71.1953 135.817 58.1867Z" fill="#FC603E"/>
<path d="M173.441 47.1072C173.219 45.8427 171.328 45.1184 169.223 45.4909L154.15 48.1485L148.561 43.2318L145.7 43.7357L147.663 49.2913L145.564 49.6616L145.766 50.8069C148.46 52.6949 151.666 53.3079 154.668 52.7786L156.674 52.4243L155.65 57.3263L159.084 56.7202L165.832 50.8104L170.03 50.0704C172.135 49.6979 173.665 48.3717 173.441 47.1072Z" fill="white"/>
<path d="M173.463 61.8306H145.564V64.1555H173.463V61.8306Z" fill="white"/>
<path d="M87.9289 110.799C84.1021 97.5761 91.7183 83.7557 104.941 79.9289C118.164 76.102 131.985 83.7201 135.811 96.941C139.637 110.162 132.021 123.984 118.799 127.811C105.577 131.638 91.7558 124.022 87.9289 110.799Z" fill="#2BC0E1"/>
<g clip-path="url(#clip1_497_6203)">
<path d="M124.201 105.124C124.201 104.46 124.644 104.017 125.308 104.017H129.296C128.41 102.023 126.527 100.693 124.201 100.693H121.431L117.554 96.041C116.447 94.8225 114.896 94.0471 113.234 94.0471H104.816C102.711 94.0471 100.828 95.2656 99.8311 97.1487L98.0587 100.693H97.6156C95.7325 100.693 94.2925 102.133 94.2925 104.017V108.447C94.2925 109.666 95.2894 110.663 96.5079 110.663H97.7264C98.1695 112.546 99.9418 113.986 102.046 113.986C104.151 113.986 105.813 112.546 106.367 110.663H115.561C116.004 112.546 117.776 113.986 119.881 113.986C121.985 113.986 123.647 112.546 124.201 110.663H127.524C128.742 110.663 129.739 109.666 129.739 108.447V106.232H125.308C124.644 106.232 124.201 105.789 124.201 105.124ZM102.046 111.771C100.828 111.771 99.8311 110.774 99.8311 109.555C99.8311 108.337 100.828 107.34 102.046 107.34C103.265 107.34 104.262 108.337 104.262 109.555C104.262 110.774 103.265 111.771 102.046 111.771ZM104.705 100.693H100.496L101.825 98.1457C102.379 97.0379 103.487 96.2625 104.816 96.2625H106.92L104.705 100.693ZM107.142 100.693L109.357 96.2625H113.234C114.231 96.2625 115.118 96.7056 115.782 97.481L118.441 100.693H107.142ZM119.77 111.771C118.551 111.771 117.554 110.774 117.554 109.555C117.554 108.337 118.551 107.34 119.77 107.34C120.988 107.34 121.985 108.337 121.985 109.555C121.985 110.774 120.988 111.771 119.77 111.771Z" fill="white"/>
</g>
<defs>
<filter id="filter0_d_497_6203" x="0" y="0" width="224" height="176" filterUnits="userSpaceOnUse" color-interpolation-filters="sRGB">
<feFlood flood-opacity="0" result="BackgroundImageFix"/>
<feColorMatrix in="SourceAlpha" type="matrix" values="0 0 0 0 0 0 0 0 0 0 0 0 0 0 0 0 0 0 127 0" result="hardAlpha"/>
<feOffset dy="10"/>
<feGaussianBlur stdDeviation="7.5"/>
<feComposite in2="hardAlpha" operator="out"/>
<feColorMatrix type="matrix" values="0 0 0 0 0.513726 0 0 0 0 0.737255 0 0 0 0 0.992157 0 0 0 0.21 0"/>
<feBlend mode="normal" in2="BackgroundImageFix" result="effect1_dropShadow_497_6203"/>
<feBlend mode="normal" in="SourceGraphic" in2="effect1_dropShadow_497_6203" result="shape"/>
</filter>
<clipPath id="clip0_497_6203">
<rect width="50" height="50" fill="white" transform="translate(35.3682 26.3682)"/>
</clipPath>
<clipPath id="clip1_497_6203">
<rect width="35.4469" height="35.4469" fill="white" transform="translate(94.2925 84.0776)"/>
</clipPath>
</defs>
</svg>
