<svg width="16" height="16" viewBox="0 0 16 16" fill="none" xmlns="http://www.w3.org/2000/svg">
<path d="M11.75 2.06706H14.75C14.9489 2.06706 15.1397 2.14574 15.2803 2.28579C15.421 2.42584 15.5 2.61579 15.5 2.81385V14.7625C15.5 14.9605 15.421 15.1505 15.2803 15.2905C15.1397 15.4306 14.9489 15.5092 14.75 15.5092H1.25C1.05109 15.5092 0.860322 15.4306 0.71967 15.2905C0.579018 15.1505 0.5 14.9605 0.5 14.7625V2.81385C0.5 2.61579 0.579018 2.42584 0.71967 2.28579C0.860322 2.14574 1.05109 2.06706 1.25 2.06706H4.25V0.573486H5.75V2.06706H10.25V0.573486H11.75V2.06706ZM2 6.54779V14.0157H14V6.54779H2ZM3.5 9.53494H7.25V12.5221H3.5V9.53494Z" fill="#77869B"/>
</svg>
