<svg width="31" height="43" viewBox="0 0 31 43" fill="none" xmlns="http://www.w3.org/2000/svg">
<path fill-rule="evenodd" clip-rule="evenodd" d="M19.1111 0H3.19877C1.43214 0 0 1.43069 0 3.19686V39.8031C0 41.5687 1.41888 43 3.18108 43H27.0782C28.835 43 30.2592 41.5811 30.2592 39.8189V12.7407H22.3057C20.5414 12.7407 19.1111 11.3286 19.1111 9.55858V0ZM20.7037 0V9.55089C20.7037 10.433 21.4219 11.1481 22.2816 11.1481H30.2592L20.7037 0ZM4.77778 11.1481V12.7407H15.9259V11.1481H4.77778ZM4.77778 6.37037V7.96296H15.9259V6.37037H4.77778ZM4.77778 15.9259V17.5185H25.4815V15.9259H4.77778ZM4.77778 20.7037V22.2963H25.4815V20.7037H4.77778ZM4.77778 25.4815V27.0741H25.4815V25.4815H4.77778ZM4.77778 30.2593V31.8519H25.4815V30.2593H4.77778ZM4.77778 35.037V36.6296H25.4815V35.037H4.77778Z" fill="#321C77"/>
</svg>
