<svg width="24" height="24" viewBox="0 0 24 24" fill="none" xmlns="http://www.w3.org/2000/svg">
<path fill-rule="evenodd" clip-rule="evenodd" d="M4.91363 11.9999C4.91363 11.2377 5.04021 10.5071 5.26613 9.82173L1.31172 6.802C0.541027 8.3668 0.106812 10.13 0.106812 11.9999C0.106812 13.8681 0.540493 15.6303 1.31012 17.194L5.26239 14.1684C5.03861 13.4863 4.91363 12.7583 4.91363 11.9999Z" fill="#FBBC05"/>
<path fill-rule="evenodd" clip-rule="evenodd" d="M11.8568 5.0666C13.5125 5.0666 15.0079 5.65327 16.1829 6.61327L19.6011 3.19993C17.5182 1.3866 14.8477 0.266602 11.8568 0.266602C7.21341 0.266602 3.22268 2.92207 1.31171 6.80207L5.26611 9.8218C6.17727 7.05593 8.77456 5.0666 11.8568 5.0666Z" fill="#EA4335"/>
<path fill-rule="evenodd" clip-rule="evenodd" d="M11.8568 18.9332C8.77456 18.9332 6.17727 16.9438 5.26611 14.178L1.31171 17.1972C3.22268 21.0777 7.21341 23.7332 11.8568 23.7332C14.7227 23.7332 17.4589 22.7156 19.5124 20.8089L15.7589 17.907C14.6998 18.5742 13.3661 18.9332 11.8568 18.9332Z" fill="#34A853"/>
<path fill-rule="evenodd" clip-rule="evenodd" d="M23.0727 12C23.0727 11.3067 22.9659 10.56 22.8057 9.8667H11.8568V14.4H18.1591C17.844 15.9456 16.9862 17.1339 15.7589 17.9072L19.5125 20.8091C21.6697 18.807 23.0727 15.8246 23.0727 12Z" fill="#4285F4"/>
</svg>
