<svg width="50" height="50" viewBox="0 0 50 50" fill="none" xmlns="http://www.w3.org/2000/svg">
<g clip-path="url(#clip0_497_6193)">
<path d="M0 25C0 11.1924 11.1924 0 25 0C38.8076 0 50 11.1943 50 25C50 38.8057 38.8066 50 25 50C11.1934 50 0 38.8076 0 25Z" fill="#33D1B5"/>
<path d="M17.8711 24.2656L19.459 18.3799H20.8516L23.6025 28.6406L24.6094 24.8047L25.3076 24.2637H27.9385L29.5264 18.3779H30.9219L32.5088 24.2637H37.0791C37.4049 23.2229 37.5738 22.1394 37.5801 21.0488C37.5801 16.8301 34.3281 13.4219 30.3398 13.4219C28.251 13.4219 26.3135 14.3906 24.9961 15.8633C23.6807 14.3906 21.7842 13.4219 19.6924 13.4219C15.7041 13.4219 12.4141 16.8301 12.4141 21.0488C12.4141 22.1729 12.6465 23.2578 12.9561 24.2637L17.8711 24.2656Z" fill="white"/>
<path d="M31.9336 25.7363H36.5039C33.4404 32.3242 25 36.5771 25 36.5771C25 36.5771 16.6016 32.3193 13.5391 25.7373H18.4219L19.1182 25.1943L20.1641 21.3623L22.9102 31.623H24.3027L25.8906 25.7363H28.4863L29.1826 25.1934L30.1885 21.3613L31.2334 25.1953L31.9336 25.7363Z" fill="white"/>
</g>
<defs>
<clipPath id="clip0_497_6193">
<rect width="50" height="50" fill="white"/>
</clipPath>
</defs>
</svg>
