<svg width="13" height="19" viewBox="0 0 13 19" fill="none" xmlns="http://www.w3.org/2000/svg">
<path fill-rule="evenodd" clip-rule="evenodd" d="M6.3 0.242188C2.817 0.242188 0 3.04712 0 6.51521C0 10.2521 3.978 15.405 5.616 17.3675C5.976 17.7977 6.633 17.7977 6.993 17.3675C8.622 15.405 12.6 10.2521 12.6 6.51521C12.6 3.04712 9.783 0.242188 6.3 0.242188ZM6.3 8.75557C5.058 8.75557 4.05 7.75189 4.05 6.51521C4.05 5.27853 5.058 4.27484 6.3 4.27484C7.542 4.27484 8.55 5.27853 8.55 6.51521C8.55 7.75189 7.542 8.75557 6.3 8.75557Z" fill="#77869B"/>
</svg>
