<svg width="12" height="17" viewBox="0 0 12 17" fill="none" xmlns="http://www.w3.org/2000/svg">
<g clip-path="url(#clip0_497_6313)">
<path fill-rule="evenodd" clip-rule="evenodd" d="M5.95 0C2.6605 0 0 2.6605 0 5.95C0 9.4945 3.757 14.382 5.304 16.2435C5.644 16.6515 6.2645 16.6515 6.6045 16.2435C8.143 14.382 11.9 9.4945 11.9 5.95C11.9 2.6605 9.2395 0 5.95 0ZM5.95 8.075C4.777 8.075 3.825 7.123 3.825 5.95C3.825 4.777 4.777 3.825 5.95 3.825C7.123 3.825 8.075 4.777 8.075 5.95C8.075 7.123 7.123 8.075 5.95 8.075Z" fill="white"/>
</g>
<defs>
<clipPath id="clip0_497_6313">
<rect width="11.9" height="17" fill="white"/>
</clipPath>
</defs>
</svg>
