<svg width="153" height="35" viewBox="0 0 153 35" fill="none" xmlns="http://www.w3.org/2000/svg">
<g filter="url(#filter0_d_497_6150)">
<path d="M38.2925 2.11385L31.8831 12.2259L31.249 13.2717V13.262C31.249 13.1903 31.238 13.1191 31.2165 13.0507L31.1677 12.9034L31.1027 12.7561L31.0214 12.5941L31.0156 12.5825C30.9657 12.4831 30.8978 12.3938 30.8154 12.3191C30.7794 12.2864 30.7408 12.2568 30.7 12.2304L30.5337 12.1228L30.2898 11.9755L30.0622 11.8576L30.0296 11.842C29.8674 11.7642 29.6988 11.7004 29.5257 11.6514C29.3855 11.6123 29.2405 11.5925 29.0949 11.5925H29.0867H28.9079L28.6803 11.6219L28.5665 11.6367L28.6478 11.5041L30.2085 9L30.9889 7.74795L31.7693 6.49591L33.2841 4.11143C33.347 4.01237 33.3984 3.90645 33.4373 3.79572L33.47 3.70266C33.485 3.65988 33.4953 3.6156 33.5009 3.57059C33.5062 3.52747 33.507 3.48391 33.5033 3.44061L33.4962 3.35738C33.4938 3.32871 33.4882 3.30039 33.4795 3.27295C33.4666 3.23202 33.4471 3.19349 33.4216 3.15892L33.3946 3.12214C33.3308 3.03546 33.2469 2.96553 33.1502 2.91834L33.0861 2.88707C32.9891 2.84801 32.8868 2.82379 32.7826 2.8152L32.761 2.81342H29.6395H28.4364L27.3147 2.93126L26.8264 3.048C26.3726 3.15649 25.9306 3.30913 25.5065 3.50372L25.2433 3.6245C25.0098 3.73166 24.7869 3.8606 24.5776 4.0096C24.3329 4.18379 24.1082 4.38443 23.9074 4.60787L23.6404 4.90507L23.4605 5.15269C23.2884 5.38946 23.1439 5.64511 23.0298 5.91467C22.8956 6.23198 22.8046 6.5659 22.7594 6.90746L22.73 7.1293V7.55806C22.73 7.74319 22.7469 7.92794 22.7804 8.11002C22.8118 8.28077 22.8577 8.44853 22.9176 8.61147L23.0389 8.94108L23.2665 9.38298L23.5104 9.7365L23.803 10.1047L24.3395 10.635C24.6423 10.9093 24.9713 11.1531 25.3218 11.3629L25.6564 11.563C26.1758 11.7983 26.7128 11.9928 27.2625 12.1446L27.7699 12.2848L29.1355 12.7119L29.4603 12.8381C29.5469 12.8717 29.6291 12.9158 29.7051 12.9693C29.8229 13.0523 29.9239 13.1568 30.0029 13.2773L30.0682 13.377C30.1502 13.5022 30.2088 13.6412 30.241 13.7872L30.2467 13.8078C30.2753 13.9115 30.2898 14.0185 30.2898 14.126V14.2367C30.2898 14.3869 30.2565 14.5352 30.1923 14.671L28.7616 16.9542L23.0787 25.8052C22.9337 26.031 22.7573 26.2351 22.5549 26.4113L22.2492 26.6774C22.1058 26.8022 21.9344 26.8906 21.7495 26.9349C21.5711 26.9777 21.3851 26.9783 21.2064 26.9367L21.1712 26.9285C20.9982 26.8882 20.8351 26.8137 20.6913 26.7095L20.6185 26.6568C20.4877 26.562 20.3705 26.4498 20.2699 26.3233L19.8361 25.7774L7.59415 6.6874L4.81409 2.29787L4.72044 2.10694C4.65294 1.96934 4.59724 1.82625 4.55397 1.67921C4.53234 1.56162 4.52146 1.4423 4.52146 1.32273V1.29624V1.10475C4.53224 1.02661 4.55446 0.950491 4.58741 0.87883L4.619 0.810147L4.66273 0.740806C4.72008 0.649888 4.78821 0.566243 4.86565 0.491695C4.96081 0.400087 5.06907 0.323137 5.18686 0.263371L5.25164 0.230503C5.36068 0.175175 5.47503 0.130988 5.59295 0.0986138L5.64561 0.084155C5.84904 0.0283042 6.05903 0 6.26998 0H19.6812C19.812 0 19.8547 0.175555 19.7386 0.235679C19.1976 0.608236 18.6873 1.02365 18.2128 1.47792L18.0641 1.62029C17.4618 2.25063 16.628 2.6072 15.7562 2.6072L12.3739 2.6072H9.44884C9.39388 2.6072 9.33903 2.61213 9.28494 2.62193L9.15878 2.65622C9.13459 2.6628 9.11124 2.67217 9.08921 2.68414L9.04049 2.71063C8.98923 2.7385 8.95257 2.78722 8.93999 2.84419C8.93169 2.88181 8.93435 2.92102 8.94765 2.95717L8.99911 3.09704C9.0162 3.14351 9.03811 3.18807 9.06448 3.22998L9.88648 4.53682L15.4954 13.3159L18.373 17.838L19.8361 20.1358L20.2914 20.8576L20.666 21.3426C20.7197 21.412 20.7784 21.4772 20.8419 21.5377L20.9645 21.6547C21.0247 21.7121 21.0942 21.7589 21.17 21.7933L21.1992 21.8065C21.2759 21.8413 21.3592 21.8592 21.4434 21.8592C21.5512 21.8592 21.657 21.8298 21.7493 21.774L21.809 21.738C21.87 21.7011 21.9261 21.6567 21.9759 21.6058L22.1701 21.4071C22.3261 21.2475 22.464 21.0711 22.5812 20.8811L25.7786 15.6984C26.0191 15.3085 25.8206 14.7967 25.38 14.671L24.3395 14.3028L23.3803 13.8462L22.5349 13.3159L21.8033 12.7709L21.7731 12.7424C21.2416 12.2419 20.7565 11.6944 20.3239 11.1064L20.233 10.9472C19.9689 10.4846 19.7437 10.0008 19.5598 9.50082L19.3322 8.45499L19.2671 7.92471V7.4239V7.4153C19.2671 7.09744 19.2916 6.78006 19.3404 6.46597C19.389 6.15251 19.4617 5.84326 19.5577 5.54095L19.7223 5.02291L20.1938 4.03601L20.2964 3.87928C20.6069 3.40507 20.9531 2.9552 21.3319 2.53355L21.9496 1.97381C22.7283 1.44472 23.5551 0.990324 24.4192 0.616684L24.5509 0.559738C25.2977 0.353799 26.0587 0.203246 26.8277 0.109305L27.1196 0.0736498L36.7278 0.16203L37.1729 0.222519C37.3093 0.241056 37.4433 0.274548 37.5723 0.322389L37.7955 0.405102C37.99 0.477185 38.1594 0.604095 38.2832 0.770469C38.4627 1.01163 38.5328 1.31706 38.4764 1.61236L38.4628 1.68352C38.4336 1.8364 38.3758 1.98239 38.2925 2.11385Z" fill="url(#paint0_linear_497_6150)"/>
</g>
<g filter="url(#filter1_d_497_6150)">
<path d="M88.68 21V7H94.4C96.0533 7 97.36 7.44667 98.32 8.34C99.28 9.23333 99.76 10.4133 99.76 11.88C99.76 13.44 99.2267 14.6533 98.16 15.52C97.0933 16.3733 95.74 16.8 94.1 16.8H91.76V21H88.68ZM91.76 14.06H94.2C94.96 14.06 95.5533 13.86 95.98 13.46C96.42 13.06 96.64 12.54 96.64 11.9C96.64 11.22 96.42 10.7 95.98 10.34C95.54 9.96667 94.9267 9.78 94.14 9.78H91.76V14.06ZM111.022 19.62C109.915 20.7 108.535 21.24 106.882 21.24C105.228 21.24 103.848 20.7067 102.742 19.64C101.648 18.56 101.102 17.2333 101.102 15.66C101.102 14.1 101.655 12.78 102.762 11.7C103.882 10.62 105.268 10.08 106.922 10.08C108.575 10.08 109.948 10.62 111.042 11.7C112.148 12.7667 112.702 14.0867 112.702 15.66C112.702 17.22 112.142 18.54 111.022 19.62ZM106.922 18.62C107.762 18.62 108.435 18.34 108.942 17.78C109.448 17.2067 109.702 16.5 109.702 15.66C109.702 14.8467 109.435 14.1533 108.902 13.58C108.382 12.9933 107.708 12.7 106.882 12.7C106.042 12.7 105.368 12.9867 104.862 13.56C104.355 14.12 104.102 14.82 104.102 15.66C104.102 16.4733 104.362 17.1733 104.882 17.76C105.415 18.3333 106.095 18.62 106.922 18.62ZM115.043 21V6.4H118.083V21H115.043ZM120.998 9.1V6.4H124.198V9.1H120.998ZM121.078 21V10.28H124.118V21H121.078ZM132.033 21.24C130.433 21.24 129.1 20.7 128.033 19.62C126.98 18.54 126.453 17.22 126.453 15.66C126.453 14.1133 126.987 12.8 128.053 11.72C129.12 10.6267 130.46 10.08 132.073 10.08C133.793 10.08 135.213 10.7067 136.333 11.96L134.553 13.76C133.807 13.0533 132.973 12.7 132.053 12.7C131.307 12.7 130.687 12.9867 130.193 13.56C129.7 14.1333 129.453 14.8333 129.453 15.66C129.453 16.5 129.7 17.2067 130.193 17.78C130.7 18.34 131.36 18.62 132.173 18.62C133.013 18.62 133.833 18.24 134.633 17.48L136.413 19.28C135.827 19.92 135.2 20.4067 134.533 20.74C133.867 21.0733 133.033 21.24 132.033 21.24ZM140.861 24.26C139.901 24.26 139.001 24.0133 138.161 23.52L139.181 21.32C139.648 21.6 140.081 21.74 140.481 21.74C140.961 21.74 141.315 21.5067 141.541 21.04L137.341 10.28H140.561L143.001 17.58L145.341 10.28H148.501L144.381 21.26C143.968 22.3667 143.501 23.14 142.981 23.58C142.461 24.0333 141.755 24.26 140.861 24.26Z" fill="white"/>
</g>
<g filter="url(#filter2_d_497_6150)">
<path d="M47.14 21.1L41.48 7H44.88L48.54 16.86L52.2 7H55.52L49.86 21.1H47.14ZM61.0338 21.24C59.4071 21.24 58.0671 20.7267 57.0138 19.7C55.9604 18.66 55.4338 17.3133 55.4338 15.66C55.4338 14.1 55.9338 12.78 56.9338 11.7C57.9338 10.62 59.2004 10.08 60.7338 10.08C62.4271 10.08 63.7204 10.64 64.6138 11.76C65.5071 12.88 65.9538 14.26 65.9538 15.9C65.9538 16.06 65.9404 16.3267 65.9138 16.7H58.4538C58.6004 17.38 58.9004 17.9 59.3538 18.26C59.8071 18.62 60.3804 18.8 61.0738 18.8C62.0204 18.8 62.8871 18.4333 63.6738 17.7L65.4138 19.24C64.3338 20.5733 62.8738 21.24 61.0338 21.24ZM58.4138 14.8H62.9938C62.9004 14.1067 62.6538 13.5533 62.2538 13.14C61.8671 12.7267 61.3604 12.52 60.7338 12.52C60.1204 12.52 59.6071 12.7267 59.1938 13.14C58.7938 13.54 58.5338 14.0933 58.4138 14.8ZM68.2194 21V10.28H71.2594V11.8C72.1527 10.6533 73.1994 10.08 74.3994 10.08C75.546 10.08 76.4394 10.4333 77.0794 11.14C77.7194 11.8467 78.0394 12.82 78.0394 14.06V21H74.9994V15.02C74.9994 14.3133 74.8394 13.7733 74.5194 13.4C74.1994 13.0267 73.746 12.84 73.1594 12.84C72.5727 12.84 72.106 13.0267 71.7594 13.4C71.426 13.7733 71.2594 14.3133 71.2594 15.02V21H68.2194ZM85.0803 21.2C83.747 21.2 82.6003 20.7 81.6403 19.7C80.6803 18.7 80.2003 17.34 80.2003 15.62C80.2003 13.9133 80.6736 12.5667 81.6203 11.58C82.5803 10.58 83.7336 10.08 85.0803 10.08C86.4136 10.08 87.527 10.6133 88.4203 11.68V6.4H91.4603V21H88.4203V19.46C87.567 20.62 86.4536 21.2 85.0803 21.2ZM84.0003 17.8C84.507 18.3467 85.127 18.62 85.8603 18.62C86.5936 18.62 87.207 18.3467 87.7003 17.8C88.207 17.24 88.4603 16.5133 88.4603 15.62C88.4603 14.7533 88.207 14.0467 87.7003 13.5C87.207 12.94 86.5936 12.66 85.8603 12.66C85.127 12.66 84.507 12.94 84.0003 13.5C83.4936 14.0467 83.2403 14.7667 83.2403 15.66C83.2403 16.5267 83.4936 17.24 84.0003 17.8Z" fill="white"/>
</g>
<circle cx="107" cy="15.5" r="3.5" transform="rotate(180 107 15.5)" fill="#FF7C03"/>
<defs>
<filter id="filter0_d_497_6150" x="0.521484" y="0" width="41.9741" height="34.9675" filterUnits="userSpaceOnUse" color-interpolation-filters="sRGB">
<feFlood flood-opacity="0" result="BackgroundImageFix"/>
<feColorMatrix in="SourceAlpha" type="matrix" values="0 0 0 0 0 0 0 0 0 0 0 0 0 0 0 0 0 0 127 0" result="hardAlpha"/>
<feOffset dy="4"/>
<feGaussianBlur stdDeviation="2"/>
<feComposite in2="hardAlpha" operator="out"/>
<feColorMatrix type="matrix" values="0 0 0 0 0 0 0 0 0 0 0 0 0 0 0 0 0 0 0.25 0"/>
<feBlend mode="normal" in2="BackgroundImageFix" result="effect1_dropShadow_497_6150"/>
<feBlend mode="normal" in="SourceGraphic" in2="effect1_dropShadow_497_6150" result="shape"/>
</filter>
<filter id="filter1_d_497_6150" x="84.6802" y="6.3999" width="67.8213" height="25.8601" filterUnits="userSpaceOnUse" color-interpolation-filters="sRGB">
<feFlood flood-opacity="0" result="BackgroundImageFix"/>
<feColorMatrix in="SourceAlpha" type="matrix" values="0 0 0 0 0 0 0 0 0 0 0 0 0 0 0 0 0 0 127 0" result="hardAlpha"/>
<feOffset dy="4"/>
<feGaussianBlur stdDeviation="2"/>
<feComposite in2="hardAlpha" operator="out"/>
<feColorMatrix type="matrix" values="0 0 0 0 0 0 0 0 0 0 0 0 0 0 0 0 0 0 0.1 0"/>
<feBlend mode="normal" in2="BackgroundImageFix" result="effect1_dropShadow_497_6150"/>
<feBlend mode="normal" in="SourceGraphic" in2="effect1_dropShadow_497_6150" result="shape"/>
</filter>
<filter id="filter2_d_497_6150" x="31.48" y="6.3999" width="59.9805" height="22.8401" filterUnits="userSpaceOnUse" color-interpolation-filters="sRGB">
<feFlood flood-opacity="0" result="BackgroundImageFix"/>
<feColorMatrix in="SourceAlpha" type="matrix" values="0 0 0 0 0 0 0 0 0 0 0 0 0 0 0 0 0 0 127 0" result="hardAlpha"/>
<feOffset dx="-6" dy="4"/>
<feGaussianBlur stdDeviation="2"/>
<feComposite in2="hardAlpha" operator="out"/>
<feColorMatrix type="matrix" values="0 0 0 0 0 0 0 0 0 0 0 0 0 0 0 0 0 0 0.1 0"/>
<feBlend mode="normal" in2="BackgroundImageFix" result="effect1_dropShadow_497_6150"/>
<feBlend mode="normal" in="SourceGraphic" in2="effect1_dropShadow_497_6150" result="shape"/>
</filter>
<linearGradient id="paint0_linear_497_6150" x1="17.2273" y1="18.9454" x2="22.4458" y2="19.3992" gradientUnits="userSpaceOnUse">
<stop stop-color="#2BC0E1"/>
<stop offset="0.104167" stop-color="#2BC0E1"/>
<stop offset="0.265625" stop-color="#FF7C03"/>
<stop offset="0.871382" stop-color="#FF7C03"/>
</linearGradient>
</defs>
</svg>
