<svg width="53" height="53" viewBox="0 0 53 53" fill="none" xmlns="http://www.w3.org/2000/svg">
<path d="M0 26.425C0 11.8303 11.8303 0 26.425 0C41.0196 0 52.85 11.8324 52.85 26.425C52.85 41.0176 41.0186 52.85 26.425 52.85C11.8314 52.85 0 41.0196 0 26.425Z" fill="#FF7C03"/>
<g clip-path="url(#clip0_497_6229)">
<path d="M39.4552 27.1268C39.4552 26.4361 39.9157 25.9756 40.6065 25.9756H44.7511C43.8301 23.9032 41.8729 22.5217 39.4552 22.5217H36.577L32.5475 17.6863C31.3963 16.4199 29.7845 15.614 28.0575 15.614H19.3078C17.1204 15.614 15.1632 16.8804 14.127 18.8376L12.285 22.5217H11.8245C9.86727 22.5217 8.37061 24.0184 8.37061 25.9756V30.5807C8.37061 31.8471 9.40676 32.8832 10.6732 32.8832H11.9396C12.4001 34.8404 14.2421 36.3371 16.4296 36.3371C18.617 36.3371 20.3439 34.8404 20.9196 32.8832H30.4752C30.9357 34.8404 32.7778 36.3371 34.9652 36.3371C37.1527 36.3371 38.8796 34.8404 39.4552 32.8832H42.9091C44.1755 32.8832 45.2116 31.8471 45.2116 30.5807V28.2781H40.6065C39.9157 28.2781 39.4552 27.8176 39.4552 27.1268ZM16.4296 34.0345C15.1632 34.0345 14.127 32.9984 14.127 31.732C14.127 30.4656 15.1632 29.4294 16.4296 29.4294C17.696 29.4294 18.7321 30.4656 18.7321 31.732C18.7321 32.9984 17.696 34.0345 16.4296 34.0345ZM19.1927 22.5217H14.8178L16.1993 19.8738C16.775 18.7225 17.9262 17.9166 19.3078 17.9166H21.4952L19.1927 22.5217ZM21.7255 22.5217L24.028 17.9166H28.0575C29.0937 17.9166 30.0147 18.3771 30.7055 19.183L33.4686 22.5217H21.7255ZM34.8501 34.0345C33.5837 34.0345 32.5475 32.9984 32.5475 31.732C32.5475 30.4656 33.5837 29.4294 34.8501 29.4294C36.1165 29.4294 37.1527 30.4656 37.1527 31.732C37.1527 32.9984 36.1165 34.0345 34.8501 34.0345Z" fill="white"/>
</g>
<defs>
<clipPath id="clip0_497_6229">
<rect width="36.841" height="36.841" fill="white" transform="translate(8.37061 5.25244)"/>
</clipPath>
</defs>
</svg>
