<svg width="133" height="125" viewBox="0 0 133 125" fill="none" xmlns="http://www.w3.org/2000/svg">
<path d="M100.92 15.527H97.329V19.097H94.893V15.527H91.323V13.091H94.893V9.521H97.329V13.091H100.92V15.527Z" fill="#FFB703"/>
<path d="M100.92 47.527H97.329V51.097H94.893V47.527H91.323V45.091H94.893V41.521H97.329V45.091H100.92V47.527Z" fill="#DBE0E7"/>
<path d="M100.92 80.527H97.329V84.097H94.893V80.527H91.323V78.091H94.893V74.521H97.329V78.091H100.92V80.527Z" fill="#DBE0E7"/>
<path d="M100.92 113.527H97.329V117.097H94.893V113.527H91.323V111.091H94.893V107.521H97.329V111.091H100.92V113.527Z" fill="#FC603E"/>
<path d="M42.92 80.527H39.329V84.097H36.893V80.527H33.323V78.091H36.893V74.521H39.329V78.091H42.92V80.527Z" fill="#33D1B5"/>
<path d="M42.92 113.527H39.329V117.097H36.893V113.527H33.323V111.091H36.893V107.521H39.329V111.091H42.92V113.527Z" fill="#DBE0E7"/>
<path d="M10.92 80.527H7.329V84.097H4.893V80.527H1.323V78.091H4.893V74.521H7.329V78.091H10.92V80.527Z" fill="#DBE0E7"/>
<path d="M10.92 113.527H7.329V117.097H4.893V113.527H1.323V111.091H4.893V107.521H7.329V111.091H10.92V113.527Z" fill="#DBE0E7"/>
<path d="M129.92 15.527H126.329V19.097H123.893V15.527H120.323V13.091H123.893V9.521H126.329V13.091H129.92V15.527Z" fill="#DBE0E7"/>
<path d="M129.92 47.527H126.329V51.097H123.893V47.527H120.323V45.091H123.893V41.521H126.329V45.091H129.92V47.527Z" fill="#3E96FC"/>
<path d="M129.92 80.527H126.329V84.097H123.893V80.527H120.323V78.091H123.893V74.521H126.329V78.091H129.92V80.527Z" fill="#DBE0E7"/>
<path d="M129.92 113.527H126.329V117.097H123.893V113.527H120.323V111.091H123.893V107.521H126.329V111.091H129.92V113.527Z" fill="#DBE0E7"/>
<path d="M71.92 80.527H68.329V84.097H65.893V80.527H62.323V78.091H65.893V74.521H68.329V78.091H71.92V80.527Z" fill="#DBE0E7"/>
<path d="M71.92 113.527H68.329V117.097H65.893V113.527H62.323V111.091H65.893V107.521H68.329V111.091H71.92V113.527Z" fill="#DBE0E7"/>
</svg>
