<svg width="43" height="38" viewBox="0 0 43 38" fill="none" xmlns="http://www.w3.org/2000/svg">
<path d="M2.49135 0C1.11114 0 0 1.11114 0 2.49135V5.51309C0.0145932 5.51257 0.0292 5.51257 0.0437933 5.51309H5.98508C5.99805 5.51268 6.01104 5.51268 6.02401 5.51309V2.49135C6.02401 1.11114 4.91287 0 3.53266 0H2.49135ZM11.9556 0.457397V37.38H32.3146V27.619H42.0026V0.457397H11.9556ZM21.5414 4.87079C21.5479 4.87074 21.5544 4.87074 21.5609 4.87079C21.603 4.86864 21.6453 4.86864 21.6874 4.87079H32.2659C32.4312 4.86914 32.5951 4.90027 32.7483 4.96238C32.9015 5.02449 33.0408 5.11634 33.1583 5.23263C33.2757 5.34891 33.3689 5.48733 33.4326 5.63987C33.4962 5.79241 33.529 5.95605 33.529 6.12133C33.529 6.28661 33.4962 6.45025 33.4326 6.60279C33.3689 6.75533 33.2757 6.89374 33.1583 7.01003C33.0408 7.12632 32.9015 7.21817 32.7483 7.28028C32.5951 7.34238 32.4312 7.37352 32.2659 7.37187H21.6874C21.3557 7.39123 21.03 7.27804 20.7818 7.05721C20.5335 6.83637 20.3832 6.52598 20.3639 6.19432C20.3445 5.86265 20.4577 5.53688 20.6785 5.28867C20.8994 5.04046 21.2098 4.89014 21.5414 4.87079ZM0.0437933 6.76363C0.0292571 6.76576 0.0146503 6.76739 0 6.7685V27.2151C0.797657 29.7907 1.83858 32.4169 2.76871 35.0736C3.86803 32.5375 5.05619 29.5417 6.02401 27.2151V6.76363C6.01104 6.76403 5.99805 6.76403 5.98508 6.76363H0.0437933ZM38.2364 9.81456C38.2413 9.81453 38.2461 9.81453 38.251 9.81456C38.4177 9.81903 38.5818 9.8569 38.7335 9.92595C38.8853 9.995 39.0217 10.0938 39.1345 10.2165C39.2474 10.3392 39.3345 10.4834 39.3907 10.6404C39.4468 10.7974 39.4709 10.964 39.4614 11.1305C39.452 11.297 39.4092 11.4598 39.3357 11.6095C39.2621 11.7591 39.1593 11.8925 39.0332 12.0016C38.9072 12.1108 38.7605 12.1935 38.6019 12.245C38.4433 12.2964 38.276 12.3155 38.1099 12.301H15.8386C15.5241 12.2939 15.224 12.1681 14.9985 11.9488C14.773 11.7296 14.6387 11.4331 14.6227 11.119C14.6067 10.8049 14.7101 10.4963 14.9121 10.2553C15.1142 10.0142 15.4 9.85852 15.7121 9.81943C15.7542 9.81729 15.7964 9.81729 15.8386 9.81943H38.1099C38.1519 9.81566 38.1942 9.81404 38.2364 9.81456ZM38.1245 15.0016C38.2945 14.9918 38.4647 15.0169 38.6246 15.0754C38.7846 15.1339 38.9308 15.2246 39.0543 15.3418C39.1778 15.459 39.276 15.6003 39.3427 15.757C39.4095 15.9137 39.4434 16.0824 39.4424 16.2527C39.4414 16.4229 39.4055 16.5912 39.3369 16.7471C39.2683 16.903 39.1685 17.0431 39.0436 17.1589C38.9188 17.2747 38.7715 17.3636 38.6109 17.4203C38.4503 17.4769 38.2798 17.5 38.1099 17.4881H15.8386C15.5241 17.481 15.224 17.3551 14.9985 17.1359C14.773 16.9166 14.6387 16.6202 14.6227 16.3061C14.6067 15.9919 14.7101 15.6834 14.9121 15.4423C15.1142 15.2013 15.4 15.0456 15.7121 15.0065C15.7542 15.0044 15.7964 15.0044 15.8386 15.0065H38.1099C38.1147 15.0048 38.1196 15.0032 38.1245 15.0016ZM15.6926 18.8846C15.6991 18.8846 15.7056 18.8846 15.7121 18.8846C15.7542 18.8825 15.7964 18.8825 15.8386 18.8846H38.1099C38.2752 18.883 38.4391 18.9141 38.5923 18.9762C38.7455 19.0383 38.8848 19.1302 39.0022 19.2465C39.1197 19.3628 39.2129 19.5012 39.2766 19.6537C39.3402 19.8063 39.373 19.9699 39.373 20.1352C39.373 20.3005 39.3402 20.4641 39.2766 20.6166C39.2129 20.7692 39.1197 20.9076 39.0022 21.0239C38.8848 21.1402 38.7455 21.232 38.5923 21.2941C38.4391 21.3562 38.2752 21.3874 38.1099 21.3857H15.8386C15.5069 21.4051 15.1811 21.2919 14.9329 21.0711C14.6847 20.8502 14.5344 20.5398 14.515 20.2082C14.4957 19.8765 14.6089 19.5507 14.8297 19.3025C15.0505 19.0543 15.3609 18.904 15.6926 18.8846ZM38.1975 22.7774C38.5278 22.7891 38.84 22.9315 39.0653 23.1733C39.2906 23.4151 39.4107 23.7365 39.3991 24.0668C39.3875 24.3972 39.2451 24.7094 39.0034 24.9348C38.7616 25.1601 38.4402 25.2803 38.1099 25.2687H15.8386C15.5166 25.2725 15.2057 25.1515 14.971 24.9311C14.7363 24.7106 14.596 24.4079 14.5797 24.0863C14.5633 23.7647 14.6721 23.4493 14.8832 23.2062C15.0943 22.9631 15.3914 22.8111 15.7121 22.7822C15.7542 22.7801 15.7964 22.7801 15.8386 22.7822H38.1099C38.139 22.7796 38.1682 22.778 38.1975 22.7774ZM16.7436 26.3344C18.2268 26.3344 19.4102 27.5919 19.4102 29.1079C19.4102 30.0189 18.954 30.8037 18.291 31.3122C18.8283 31.6165 19.3013 32.0513 19.6826 32.5676C20.3992 33.5377 20.826 34.7825 20.8261 36.0419V36.5382H13.1574H12.6611V36.0419C12.6613 34.7824 13.0832 33.5377 13.7997 32.5676C14.1811 32.0515 14.659 31.6165 15.1963 31.3122C14.5315 30.8038 14.0771 30.0204 14.0771 29.1079C14.0771 27.5919 15.2604 26.3344 16.7436 26.3344ZM16.7436 27.327C15.8252 27.327 15.0698 28.1055 15.0698 29.1079C15.0698 30.0898 15.7972 30.853 16.6901 30.884C16.7086 30.8837 16.7249 30.8743 16.7436 30.8743C16.7622 30.8743 16.7787 30.8836 16.7972 30.884C17.6899 30.8528 18.4175 30.0898 18.4175 29.1079C18.4175 28.1056 17.662 27.327 16.7436 27.327ZM33.4191 28.7235V37.2681C34.545 37.2682 35.6599 37.0473 36.7001 36.6179C37.7403 36.1886 38.6855 35.5592 39.4816 34.7657C40.2778 33.9723 40.9093 33.0303 41.3402 31.9936C41.7711 30.9569 41.9929 29.8457 41.9929 28.7235H33.4191ZM16.7436 31.8864C16.57 31.8864 16.3967 31.92 16.2278 31.9642L16.7436 32.918L17.2837 31.9691C17.1059 31.9199 16.927 31.8864 16.7436 31.8864ZM15.3422 32.4216C15.0792 32.6224 14.8282 32.8575 14.6075 33.1564C14.1245 33.8101 13.9211 34.6906 13.8192 35.5456H19.668C19.5661 34.6902 19.3579 33.8099 18.8749 33.1564C18.6611 32.867 18.4182 32.6388 18.1645 32.4411L17.167 34.188C16.8645 34.5669 16.5813 34.544 16.3008 34.1685L15.3422 32.4216Z" fill="#FFB703"/>
</svg>
