<svg width="396" height="258" viewBox="0 0 396 258" fill="none" xmlns="http://www.w3.org/2000/svg">
<g clip-path="url(#clip0_1090_47)">
<g filter="url(#filter0_d_1090_47)">
<path d="M164.2 125.829C156.333 112.343 145.657 101.667 132.171 93.8002C118.685 85.9334 103.995 82 88.0201 82C72.0456 82 57.3154 85.9334 43.8294 93.8002C30.3434 101.667 19.667 112.343 11.8002 125.829C3.93341 139.315 0 154.046 0 170.02C0 185.995 3.93341 200.725 11.8002 214.211C19.667 227.697 30.3434 238.373 43.8294 246.24C57.3154 254.107 72.0456 258.04 88.0201 258.04C103.995 258.04 118.725 254.107 132.211 246.24C145.697 238.373 156.373 227.697 164.24 214.211C172.107 200.725 176.04 185.995 176.04 170.02C176 154.046 172.067 139.315 164.2 125.829ZM102.67 225.008C102.67 226.091 102.309 226.974 101.626 227.657C100.944 228.339 100.061 228.7 98.9774 228.7H76.9824C75.8987 228.7 75.0157 228.339 74.3334 227.657C73.6511 226.974 73.2898 226.091 73.2898 225.008V203.013C73.2898 201.929 73.6511 201.046 74.3334 200.363C75.0157 199.681 75.8987 199.32 76.9824 199.32H98.9774C100.061 199.32 100.944 199.681 101.626 200.363C102.309 201.046 102.67 201.929 102.67 203.013V225.008ZM130.565 157.297C129.602 160.106 128.558 162.434 127.354 164.24C126.19 166.047 124.464 167.853 122.257 169.739C120.049 171.626 118.283 172.95 116.999 173.753C115.714 174.556 113.828 175.639 111.38 177.004C108.851 178.449 106.764 180.335 105.118 182.663C103.473 184.991 102.67 186.878 102.67 188.322C102.67 189.406 102.309 190.289 101.626 190.971C100.944 191.654 100.061 192.015 98.9774 192.015H76.9824C75.8987 192.015 75.0157 191.654 74.3334 190.971C73.6511 190.289 73.2898 189.406 73.2898 188.322V184.188C73.2898 179.051 75.2967 174.275 79.3104 169.819C83.3241 165.364 87.7391 162.033 92.5555 159.906C96.208 158.22 98.8169 156.494 100.342 154.768C101.867 153.002 102.63 150.674 102.63 147.784C102.63 145.256 101.185 143.008 98.3352 141.041C95.4855 139.075 92.1943 138.071 88.5418 138.071C84.5683 138.071 81.2771 138.994 78.6682 140.841C76.1396 142.687 72.8483 146.179 68.7945 151.397C68.1122 152.32 67.1489 152.761 65.9448 152.761C65.0217 152.761 64.2992 152.52 63.7774 152.079L48.6458 140.6C46.8798 139.235 46.5989 137.63 47.7227 135.783C57.5161 119.528 71.6844 111.38 90.2276 111.38C96.8903 111.38 103.352 112.945 109.694 116.076C116.036 119.207 121.334 123.622 125.548 129.361C129.802 135.101 131.89 141.322 131.89 148.025C132.01 151.356 131.528 154.447 130.565 157.297Z" fill="#FF7C03" fill-opacity="0.22" shape-rendering="crispEdges"/>
</g>
<g filter="url(#filter1_d_1090_47)">
<circle cx="88" cy="170" r="81.5" stroke="white" stroke-opacity="0.21" stroke-dasharray="7 7" shape-rendering="crispEdges"/>
</g>
</g>
<g clip-path="url(#clip1_1090_47)">
<g filter="url(#filter2_d_1090_47)">
<path d="M384.2 125.829C376.333 112.343 365.657 101.667 352.171 93.8002C338.685 85.9334 323.995 82 308.02 82C292.046 82 277.315 85.9334 263.829 93.8002C250.343 101.667 239.667 112.343 231.8 125.829C223.933 139.315 220 154.046 220 170.02C220 185.995 223.933 200.725 231.8 214.211C239.667 227.697 250.343 238.373 263.829 246.24C277.315 254.107 292.046 258.04 308.02 258.04C323.995 258.04 338.725 254.107 352.211 246.24C365.697 238.373 376.373 227.697 384.24 214.211C392.107 200.725 396.04 185.995 396.04 170.02C396 154.046 392.067 139.315 384.2 125.829ZM322.67 225.008C322.67 226.091 322.309 226.974 321.626 227.657C320.944 228.339 320.061 228.7 318.977 228.7H296.982C295.899 228.7 295.016 228.339 294.333 227.657C293.651 226.974 293.29 226.091 293.29 225.008V203.013C293.29 201.929 293.651 201.046 294.333 200.363C295.016 199.681 295.899 199.32 296.982 199.32H318.977C320.061 199.32 320.944 199.681 321.626 200.363C322.309 201.046 322.67 201.929 322.67 203.013V225.008ZM350.565 157.297C349.602 160.106 348.558 162.434 347.354 164.24C346.19 166.047 344.464 167.853 342.257 169.739C340.049 171.626 338.283 172.95 336.999 173.753C335.714 174.556 333.828 175.639 331.38 177.004C328.851 178.449 326.764 180.335 325.118 182.663C323.473 184.991 322.67 186.878 322.67 188.322C322.67 189.406 322.309 190.289 321.626 190.971C320.944 191.654 320.061 192.015 318.977 192.015H296.982C295.899 192.015 295.016 191.654 294.333 190.971C293.651 190.289 293.29 189.406 293.29 188.322V184.188C293.29 179.051 295.297 174.275 299.31 169.819C303.324 165.364 307.739 162.033 312.556 159.906C316.208 158.22 318.817 156.494 320.342 154.768C321.867 153.002 322.63 150.674 322.63 147.784C322.63 145.256 321.185 143.008 318.335 141.041C315.486 139.075 312.194 138.071 308.542 138.071C304.568 138.071 301.277 138.994 298.668 140.841C296.14 142.687 292.848 146.179 288.795 151.397C288.112 152.32 287.149 152.761 285.945 152.761C285.022 152.761 284.299 152.52 283.777 152.079L268.646 140.6C266.88 139.235 266.599 137.63 267.723 135.783C277.516 119.528 291.684 111.38 310.228 111.38C316.89 111.38 323.352 112.945 329.694 116.076C336.036 119.207 341.334 123.622 345.548 129.361C349.802 135.101 351.89 141.322 351.89 148.025C352.01 151.356 351.528 154.447 350.565 157.297Z" fill="#FF7C03" fill-opacity="0.22" shape-rendering="crispEdges"/>
</g>
<g filter="url(#filter3_d_1090_47)">
<circle cx="308" cy="170" r="81.5" stroke="white" stroke-opacity="0.21" stroke-dasharray="7 7" shape-rendering="crispEdges"/>
</g>
</g>
<g clip-path="url(#clip2_1090_47)">
<g filter="url(#filter4_d_1090_47)">
<path d="M271.2 43.8294C263.333 30.3434 252.657 19.667 239.171 11.8002C225.685 3.93341 210.995 0 195.02 0C179.046 0 164.315 3.93341 150.829 11.8002C137.343 19.667 126.667 30.3434 118.8 43.8294C110.933 57.3154 107 72.0456 107 88.0201C107 103.995 110.933 118.725 118.8 132.211C126.667 145.697 137.343 156.373 150.829 164.24C164.315 172.107 179.046 176.04 195.02 176.04C210.995 176.04 225.725 172.107 239.211 164.24C252.697 156.373 263.373 145.697 271.24 132.211C279.107 118.725 283.04 103.995 283.04 88.0201C283 72.0456 279.067 57.3154 271.2 43.8294ZM209.67 143.008C209.67 144.091 209.309 144.974 208.626 145.657C207.944 146.339 207.061 146.7 205.977 146.7H183.982C182.899 146.7 182.016 146.339 181.333 145.657C180.651 144.974 180.29 144.091 180.29 143.008V121.013C180.29 119.929 180.651 119.046 181.333 118.363C182.016 117.681 182.899 117.32 183.982 117.32H205.977C207.061 117.32 207.944 117.681 208.626 118.363C209.309 119.046 209.67 119.929 209.67 121.013V143.008ZM237.565 75.2967C236.602 78.1063 235.558 80.4342 234.354 82.2404C233.19 84.0465 231.464 85.8527 229.257 87.7391C227.049 89.6255 225.283 90.9501 223.999 91.7528C222.714 92.5555 220.828 93.6392 218.38 95.0039C215.851 96.4488 213.764 98.3352 212.118 100.663C210.473 102.991 209.67 104.878 209.67 106.322C209.67 107.406 209.309 108.289 208.626 108.971C207.944 109.654 207.061 110.015 205.977 110.015H183.982C182.899 110.015 182.016 109.654 181.333 108.971C180.651 108.289 180.29 107.406 180.29 106.322V102.188C180.29 97.0508 182.297 92.2746 186.31 87.8194C190.324 83.3642 194.739 80.0328 199.556 77.9056C203.208 76.2198 205.817 74.4939 207.342 72.7681C208.867 71.002 209.63 68.6741 209.63 65.7843C209.63 63.2556 208.185 61.008 205.335 59.0413C202.486 57.0746 199.194 56.0711 195.542 56.0711C191.568 56.0711 188.277 56.9943 185.668 58.8406C183.14 60.6869 179.848 64.1788 175.795 69.3966C175.112 70.3197 174.149 70.7612 172.945 70.7612C172.022 70.7612 171.299 70.5204 170.777 70.0789L155.646 58.5998C153.88 57.2351 153.599 55.6296 154.723 53.7833C164.516 37.5279 178.684 29.3802 197.228 29.3802C203.89 29.3802 210.352 30.9455 216.694 34.0762C223.036 37.2068 228.334 41.6219 232.548 47.3615C236.802 53.101 238.89 59.3222 238.89 66.0251C239.01 69.3564 238.528 72.447 237.565 75.2967Z" fill="#FF7C03"/>
</g>
<g filter="url(#filter5_d_1090_47)">
<circle cx="195" cy="88" r="81.5" stroke="white" stroke-dasharray="7 7" shape-rendering="crispEdges"/>
</g>
</g>
<defs>
<filter id="filter0_d_1090_47" x="-4" y="82" width="184.04" height="184.04" filterUnits="userSpaceOnUse" color-interpolation-filters="sRGB">
<feFlood flood-opacity="0" result="BackgroundImageFix"/>
<feColorMatrix in="SourceAlpha" type="matrix" values="0 0 0 0 0 0 0 0 0 0 0 0 0 0 0 0 0 0 127 0" result="hardAlpha"/>
<feOffset dy="4"/>
<feGaussianBlur stdDeviation="2"/>
<feComposite in2="hardAlpha" operator="out"/>
<feColorMatrix type="matrix" values="0 0 0 0 0 0 0 0 0 0 0 0 0 0 0 0 0 0 0.25 0"/>
<feBlend mode="normal" in2="BackgroundImageFix" result="effect1_dropShadow_1090_47"/>
<feBlend mode="normal" in="SourceGraphic" in2="effect1_dropShadow_1090_47" result="shape"/>
</filter>
<filter id="filter1_d_1090_47" x="2" y="88" width="172" height="172" filterUnits="userSpaceOnUse" color-interpolation-filters="sRGB">
<feFlood flood-opacity="0" result="BackgroundImageFix"/>
<feColorMatrix in="SourceAlpha" type="matrix" values="0 0 0 0 0 0 0 0 0 0 0 0 0 0 0 0 0 0 127 0" result="hardAlpha"/>
<feOffset dy="4"/>
<feGaussianBlur stdDeviation="2"/>
<feComposite in2="hardAlpha" operator="out"/>
<feColorMatrix type="matrix" values="0 0 0 0 0 0 0 0 0 0 0 0 0 0 0 0 0 0 0.39 0"/>
<feBlend mode="normal" in2="BackgroundImageFix" result="effect1_dropShadow_1090_47"/>
<feBlend mode="normal" in="SourceGraphic" in2="effect1_dropShadow_1090_47" result="shape"/>
</filter>
<filter id="filter2_d_1090_47" x="216" y="82" width="184.04" height="184.04" filterUnits="userSpaceOnUse" color-interpolation-filters="sRGB">
<feFlood flood-opacity="0" result="BackgroundImageFix"/>
<feColorMatrix in="SourceAlpha" type="matrix" values="0 0 0 0 0 0 0 0 0 0 0 0 0 0 0 0 0 0 127 0" result="hardAlpha"/>
<feOffset dy="4"/>
<feGaussianBlur stdDeviation="2"/>
<feComposite in2="hardAlpha" operator="out"/>
<feColorMatrix type="matrix" values="0 0 0 0 0 0 0 0 0 0 0 0 0 0 0 0 0 0 0.25 0"/>
<feBlend mode="normal" in2="BackgroundImageFix" result="effect1_dropShadow_1090_47"/>
<feBlend mode="normal" in="SourceGraphic" in2="effect1_dropShadow_1090_47" result="shape"/>
</filter>
<filter id="filter3_d_1090_47" x="222" y="88" width="172" height="172" filterUnits="userSpaceOnUse" color-interpolation-filters="sRGB">
<feFlood flood-opacity="0" result="BackgroundImageFix"/>
<feColorMatrix in="SourceAlpha" type="matrix" values="0 0 0 0 0 0 0 0 0 0 0 0 0 0 0 0 0 0 127 0" result="hardAlpha"/>
<feOffset dy="4"/>
<feGaussianBlur stdDeviation="2"/>
<feComposite in2="hardAlpha" operator="out"/>
<feColorMatrix type="matrix" values="0 0 0 0 0 0 0 0 0 0 0 0 0 0 0 0 0 0 0.39 0"/>
<feBlend mode="normal" in2="BackgroundImageFix" result="effect1_dropShadow_1090_47"/>
<feBlend mode="normal" in="SourceGraphic" in2="effect1_dropShadow_1090_47" result="shape"/>
</filter>
<filter id="filter4_d_1090_47" x="103" y="0" width="184.04" height="184.04" filterUnits="userSpaceOnUse" color-interpolation-filters="sRGB">
<feFlood flood-opacity="0" result="BackgroundImageFix"/>
<feColorMatrix in="SourceAlpha" type="matrix" values="0 0 0 0 0 0 0 0 0 0 0 0 0 0 0 0 0 0 127 0" result="hardAlpha"/>
<feOffset dy="4"/>
<feGaussianBlur stdDeviation="2"/>
<feComposite in2="hardAlpha" operator="out"/>
<feColorMatrix type="matrix" values="0 0 0 0 0 0 0 0 0 0 0 0 0 0 0 0 0 0 0.25 0"/>
<feBlend mode="normal" in2="BackgroundImageFix" result="effect1_dropShadow_1090_47"/>
<feBlend mode="normal" in="SourceGraphic" in2="effect1_dropShadow_1090_47" result="shape"/>
</filter>
<filter id="filter5_d_1090_47" x="109" y="6" width="172" height="172" filterUnits="userSpaceOnUse" color-interpolation-filters="sRGB">
<feFlood flood-opacity="0" result="BackgroundImageFix"/>
<feColorMatrix in="SourceAlpha" type="matrix" values="0 0 0 0 0 0 0 0 0 0 0 0 0 0 0 0 0 0 127 0" result="hardAlpha"/>
<feOffset dy="4"/>
<feGaussianBlur stdDeviation="2"/>
<feComposite in2="hardAlpha" operator="out"/>
<feColorMatrix type="matrix" values="0 0 0 0 0 0 0 0 0 0 0 0 0 0 0 0 0 0 0.39 0"/>
<feBlend mode="normal" in2="BackgroundImageFix" result="effect1_dropShadow_1090_47"/>
<feBlend mode="normal" in="SourceGraphic" in2="effect1_dropShadow_1090_47" result="shape"/>
</filter>
<clipPath id="clip0_1090_47">
<rect width="176" height="176" fill="white" transform="translate(0 82)"/>
</clipPath>
<clipPath id="clip1_1090_47">
<rect width="176" height="176" fill="white" transform="translate(220 82)"/>
</clipPath>
<clipPath id="clip2_1090_47">
<rect width="176" height="176" fill="white" transform="translate(107)"/>
</clipPath>
</defs>
</svg>
