<svg width="23" height="18" viewBox="0 0 23 18" fill="none" xmlns="http://www.w3.org/2000/svg">
<path d="M2.53779 15.9296C1.29321 14.6077 0.625 13.1251 0.625 10.7217C0.625 6.49255 3.59387 2.70201 7.91125 0.827881L8.99029 2.49296C4.9605 4.6728 4.17267 7.50151 3.8585 9.28501C4.50738 8.94909 5.35683 8.83188 6.18937 8.90921C8.36921 9.11101 10.0875 10.9005 10.0875 13.1251C10.0875 14.2467 9.64189 15.3224 8.84876 16.1156C8.05564 16.9087 6.97994 17.3543 5.85829 17.3543C4.56175 17.3543 3.322 16.7622 2.53779 15.9296ZM14.6211 15.9296C13.3765 14.6077 12.7083 13.1251 12.7083 10.7217C12.7083 6.49255 15.6772 2.70201 19.9946 0.827881L21.0736 2.49296C17.0438 4.6728 16.256 7.50151 15.9418 9.28501C16.5907 8.94909 17.4402 8.83188 18.2727 8.90921C20.4525 9.11101 22.1708 10.9005 22.1708 13.1251C22.1708 14.2467 21.7252 15.3224 20.9321 16.1156C20.139 16.9087 19.0633 17.3543 17.9416 17.3543C16.6451 17.3543 15.4053 16.7622 14.6211 15.9296Z" fill="white"/>
</svg>
