<svg width="41" height="41" viewBox="0 0 41 41" fill="none" xmlns="http://www.w3.org/2000/svg">
<circle cx="20.5" cy="20.5" r="20.5" fill="#FF7C03"/>
<g clip-path="url(#clip0_1045_48)">
<path d="M11.5378 26.9296C10.2932 25.6077 9.625 24.1251 9.625 21.7217C9.625 17.4925 12.5939 13.702 16.9112 11.8279L17.9903 13.493C13.9605 15.6728 13.1727 18.5015 12.8585 20.285C13.5074 19.9491 14.3568 19.8319 15.1894 19.9092C17.3692 20.111 19.0875 21.9005 19.0875 24.1251C19.0875 25.2467 18.6419 26.3224 17.8488 27.1156C17.0556 27.9087 15.9799 28.3543 14.8583 28.3543C13.5617 28.3543 12.322 27.7622 11.5378 26.9296ZM23.6211 26.9296C22.3765 25.6077 21.7083 24.1251 21.7083 21.7217C21.7083 17.4925 24.6772 13.702 28.9946 11.8279L30.0736 13.493C26.0438 15.6728 25.256 18.5015 24.9418 20.285C25.5907 19.9491 26.4402 19.8319 27.2727 19.9092C29.4525 20.111 31.1708 21.9005 31.1708 24.1251C31.1708 25.2467 30.7252 26.3224 29.9321 27.1156C29.139 27.9087 28.0633 28.3543 26.9416 28.3543C25.6451 28.3543 24.4053 27.7622 23.6211 26.9296Z" fill="white"/>
</g>
<defs>
<clipPath id="clip0_1045_48">
<rect width="29" height="29" fill="white" transform="translate(6 6)"/>
</clipPath>
</defs>
</svg>
