<svg width="17" height="15" viewBox="0 0 17 15" fill="none" xmlns="http://www.w3.org/2000/svg">
<path d="M7.22447 0.712816C7.53603 -0.182151 8.80172 -0.18215 9.11329 0.712816L10.3407 4.23861C10.4806 4.6405 10.8596 4.90983 11.2851 4.90983H15.1023C16.0876 4.90983 16.4791 6.18447 15.6635 6.73748L12.6968 8.74927C12.3219 9.00349 12.1647 9.47793 12.3136 9.9057L13.4743 13.2399C13.7909 14.1492 12.7656 14.9367 11.9687 14.3963L8.73011 12.2002C8.39124 11.9704 7.94652 11.9704 7.60764 12.2002L4.36909 14.3963C3.57219 14.9367 2.54688 14.1492 2.86344 13.2399L4.02416 9.9057C4.17308 9.47793 4.01588 9.00349 3.64099 8.74927L0.67422 6.73749C-0.141303 6.18447 0.250113 4.90983 1.23546 4.90983H5.05263C5.47819 4.90983 5.85713 4.6405 5.99704 4.23861L7.22447 0.712816Z" fill="#F4C15D"/>
</svg>
