<svg width="200" height="200" viewBox="0 0 200 200" fill="none" xmlns="http://www.w3.org/2000/svg">
<g clip-path="url(#clip0_233_577)">
<g filter="url(#filter0_d_233_577)">
<path d="M185 32.5C183.125 31.25 181.25 30.625 179.375 31.875C152.5 40.625 125 33.75 104.375 14.375C101.875 11.875 98.125 11.875 95.625 14.375C75 33.75 47.5 40.625 20.625 31.875C18.75 30.625 16.875 31.25 15 32.5C13.75 33.75 12.5 35.625 12.5 37.5C12.5 135.625 55.625 168.125 97.5 186.875C98.125 187.5 99.375 187.5 100 187.5C100.625 187.5 101.875 187.5 102.5 186.875C144.375 168.125 187.5 135.625 187.5 37.5C187.5 35.625 186.25 33.75 185 32.5ZM135.625 85.625L98.125 123.125C96.875 124.375 95.625 125 93.75 125C91.875 125 90.625 124.375 89.375 123.125L70.625 104.375C68.125 101.875 68.125 98.125 70.625 95.625C73.125 93.125 76.875 93.125 79.375 95.625L93.75 110L126.875 76.875C129.375 74.375 133.125 74.375 135.625 76.875C138.125 79.375 138.125 83.125 135.625 85.625Z" fill="#33D1B5"/>
<path d="M179.685 32.8259L179.815 32.7833L179.93 32.7071C180.649 32.2277 181.328 32.1205 182.023 32.2364C182.735 32.3551 183.508 32.7167 184.362 33.2771C185.518 34.4559 186.5 36.0529 186.5 37.5C186.5 86.4148 175.753 118.854 159.886 141.377C144.016 163.904 122.95 176.623 102.091 185.962L101.923 186.038L101.793 186.168C101.702 186.259 101.485 186.369 101.086 186.435C100.709 186.498 100.318 186.5 100 186.5C99.6817 186.5 99.2908 186.498 98.9144 186.435C98.515 186.369 98.2979 186.259 98.2071 186.168L98.0768 186.038L97.9087 185.962C77.0503 176.623 55.9835 163.904 40.1144 141.377C24.2472 118.854 13.5 86.4148 13.5 37.5C13.5 36.0529 14.4825 34.4559 15.6378 33.2771C16.4923 32.7167 17.2646 32.3551 17.9769 32.2364C18.6724 32.1205 19.3513 32.2277 20.0703 32.7071L20.1847 32.7833L20.3154 32.8259C47.5576 41.6954 75.4343 34.714 96.3097 15.1038L96.3211 15.0932L96.3321 15.0821C98.4416 12.9726 101.558 12.9726 103.668 15.0821L103.679 15.0932L103.69 15.1038C124.566 34.714 152.442 41.6954 179.685 32.8259ZM98.8321 123.832L136.332 86.3321C139.223 83.4416 139.223 79.0584 136.332 76.1679C133.442 73.2774 129.058 73.2774 126.168 76.1679L93.75 108.586L80.0821 94.9179C77.1916 92.0274 72.8084 92.0274 69.9179 94.9179C67.0274 97.8084 67.0274 102.192 69.9179 105.082L88.6679 123.832C89.3519 124.516 90.0757 125.069 90.922 125.445C91.7726 125.823 92.6958 126 93.75 126C94.8042 126 95.7274 125.823 96.578 125.445C97.4243 125.069 98.1481 124.516 98.8321 123.832Z" stroke="white" stroke-width="2"/>
</g>
</g>
<defs>
<filter id="filter0_d_233_577" x="-0.5" y="3.5" width="201" height="201" filterUnits="userSpaceOnUse" color-interpolation-filters="sRGB">
<feFlood flood-opacity="0" result="BackgroundImageFix"/>
<feColorMatrix in="SourceAlpha" type="matrix" values="0 0 0 0 0 0 0 0 0 0 0 0 0 0 0 0 0 0 127 0" result="hardAlpha"/>
<feOffset dy="4"/>
<feGaussianBlur stdDeviation="6.5"/>
<feComposite in2="hardAlpha" operator="out"/>
<feColorMatrix type="matrix" values="0 0 0 0 0 0 0 0 0 0 0 0 0 0 0 0 0 0 0.35 0"/>
<feBlend mode="normal" in2="BackgroundImageFix" result="effect1_dropShadow_233_577"/>
<feBlend mode="normal" in="SourceGraphic" in2="effect1_dropShadow_233_577" result="shape"/>
</filter>
<clipPath id="clip0_233_577">
<rect width="200" height="200" fill="white"/>
</clipPath>
</defs>
</svg>
