<svg width="41" height="41" viewBox="0 0 41 41" fill="none" xmlns="http://www.w3.org/2000/svg">
<circle cx="20.5" cy="20.5" r="20.5" fill="white"/>
<g clip-path="url(#clip0_497_6157)">
<path fill-rule="evenodd" clip-rule="evenodd" d="M20.7059 28.1458L26.5647 31.6893C27.6377 32.3387 28.9506 31.3787 28.6682 30.1646L27.1153 23.501L32.2965 19.0116C33.2424 18.1928 32.7341 16.6399 31.4918 16.541L24.673 15.9622L22.0047 9.66575C21.5247 8.52222 19.8871 8.52222 19.4071 9.66575L16.7388 15.9481L9.92002 16.5269C8.67766 16.6258 8.16943 18.1787 9.11531 18.9975L14.2965 23.4869L12.7435 30.1505C12.4612 31.3646 13.7741 32.3246 14.8471 31.6752L20.7059 28.1458Z" fill="#33D1B5"/>
</g>
<defs>
<clipPath id="clip0_497_6157">
<rect width="25.4118" height="24" fill="white" transform="translate(8 8)"/>
</clipPath>
</defs>
</svg>
