<svg width="56" height="57" viewBox="0 0 56 57" fill="none" xmlns="http://www.w3.org/2000/svg">
<rect x="1" y="1" width="53.9623" height="55" rx="12" stroke="#FFDCBB"/>
<g clip-path="url(#clip0_515_848)">
<path d="M37.625 32.4626V25.8126C37.6237 23.9924 36.955 22.236 35.7456 20.8758C34.5362 19.5156 32.8699 18.6461 31.0625 18.4319V15.7501C31.0626 15.5767 31.0112 15.4071 30.9148 15.263C30.8184 15.1188 30.6813 15.0065 30.521 14.9404C30.3606 14.8743 30.1843 14.8574 30.0143 14.8917C29.8443 14.926 29.6883 15.0101 29.5662 15.1332L26.0662 18.6332C25.9848 18.7145 25.9203 18.811 25.8763 18.9172C25.8322 19.0234 25.8096 19.1373 25.8096 19.2523C25.8096 19.3673 25.8322 19.4811 25.8763 19.5873C25.9203 19.6936 25.9848 19.7901 26.0662 19.8713L29.5662 23.3713C29.6886 23.4947 29.8449 23.5789 30.0153 23.6131C30.1858 23.6473 30.3625 23.6299 30.523 23.5633C30.6835 23.4966 30.8205 23.3837 30.9166 23.2389C31.0127 23.094 31.0635 22.9239 31.0625 22.7501V20.1994C32.402 20.408 33.6229 21.0882 34.5052 22.1173C35.3876 23.1465 35.8733 24.457 35.875 25.8126V32.4626C34.8868 32.6643 33.9986 33.2013 33.3608 33.9825C32.723 34.7639 32.3747 35.7415 32.375 36.7501C32.6156 42.5557 40.8843 42.5513 41.125 36.7501C41.1252 35.7415 40.7769 34.7639 40.1391 33.9825C39.5013 33.2013 38.6131 32.6643 37.625 32.4626Z" fill="#FF7C03"/>
<path d="M26.3376 32.6332C26.2358 32.5316 26.1105 32.4567 25.9729 32.4151C25.8353 32.3735 25.6895 32.3664 25.5485 32.3945C25.4075 32.4226 25.2756 32.4851 25.1645 32.5763C25.0533 32.6675 24.9664 32.7847 24.9113 32.9175C24.7844 33.0357 24.8676 35.5907 24.8457 35.8007C23.5062 35.5921 22.2853 34.912 21.4029 33.8828C20.5205 32.8537 20.0348 31.5432 20.0332 30.1875V23.5375C21.0214 23.3358 21.9095 22.7989 22.5474 22.0176C23.1852 21.2363 23.5334 20.2586 23.5332 19.25C23.2926 13.4444 15.0238 13.4488 14.7832 19.25C14.783 20.2586 15.1313 21.2363 15.7691 22.0176C16.4069 22.7989 17.295 23.3358 18.2832 23.5375V30.1875C18.2845 32.0077 18.9531 33.7641 20.1626 35.1243C21.372 36.4846 23.0382 37.354 24.8457 37.5682C24.8457 37.6688 24.8063 40.4994 24.8851 40.495C24.9284 40.6396 25.0083 40.7705 25.1172 40.875C25.226 40.9795 25.3601 41.0541 25.5062 41.0915C25.6524 41.1289 25.8058 41.1279 25.9514 41.0885C26.0971 41.0492 26.2301 40.9729 26.3376 40.8669L29.8376 37.3669C29.9189 37.2857 29.9835 37.1892 30.0275 37.0829C30.0715 36.9767 30.0942 36.8628 30.0942 36.7478C30.0942 36.6329 30.0715 36.519 30.0275 36.4128C29.9835 36.3065 29.9189 36.2101 29.8376 36.1288L26.3376 32.6332Z" fill="#FF7C03"/>
</g>
<defs>
<clipPath id="clip0_515_848">
<rect width="28" height="28" fill="white" transform="translate(14 14)"/>
</clipPath>
</defs>
</svg>
