<svg width="56" height="57" viewBox="0 0 56 57" fill="none" xmlns="http://www.w3.org/2000/svg">
<rect x="1" y="1" width="53.9623" height="55" rx="12" stroke="#FFDCBB"/>
<g clip-path="url(#clip0_1045_40)">
<path d="M38.5002 17.5C39.1442 17.5 39.6668 18.0227 39.6668 18.6667V35C39.6668 35.644 39.1442 36.1667 38.5002 36.1667H21.531L16.3335 40.25V18.6667C16.3335 18.0227 16.8562 17.5 17.5002 17.5H38.5002ZM26.7892 23.45L26.2677 22.6473C24.1828 23.5515 22.7502 25.3808 22.7502 27.4225C22.7502 28.5833 23.0733 29.2997 23.6742 29.9378C24.0522 30.3392 24.6507 30.625 25.2772 30.625C26.4042 30.625 27.3188 29.7103 27.3188 28.5833C27.3188 27.51 26.4893 26.6455 25.4358 26.5475C25.2492 26.53 25.0578 26.5335 24.877 26.5592V26.4518C24.884 25.9595 24.9843 24.5467 26.5733 23.5748L26.7892 23.45L26.2677 22.6473L26.7892 23.45ZM32.101 22.6473C30.0162 23.5515 28.5835 25.3808 28.5835 27.4225C28.5835 28.5833 28.9067 29.2997 29.5075 29.9378C29.8855 30.3392 30.484 30.625 31.1105 30.625C32.2375 30.625 33.1522 29.7103 33.1522 28.5833C33.1522 27.51 32.3227 26.6455 31.2692 26.5475C31.0825 26.53 30.8912 26.5335 30.7103 26.5592C30.7103 26.194 30.6765 24.5035 32.6225 23.45L32.101 22.6473Z" fill="#FF7C03"/>
</g>
<defs>
<clipPath id="clip0_1045_40">
<rect width="28" height="28" fill="white" transform="translate(14 14)"/>
</clipPath>
</defs>
</svg>
