<svg width="56" height="57" viewBox="0 0 56 57" fill="none" xmlns="http://www.w3.org/2000/svg">
<rect x="1" y="1" width="53.9623" height="55" rx="12" stroke="#FFDCBB"/>
<path d="M19.129 29.0324L20.9003 28.5895C23.0791 28.0445 25.3682 28.1322 27.499 28.8422L27.7056 28.9119C27.9461 28.9908 28.1977 29.0306 28.4508 29.03H32.409C33.3907 29.0312 34.3478 29.3377 35.1476 29.907C35.9474 30.4764 36.5502 31.2804 36.8727 32.2077L40.0043 31.8168C41.0667 30.1425 41.69 28.2274 41.8168 26.2485C41.9435 24.2696 41.5696 22.2906 40.7295 20.4944C39.8894 18.6982 38.6102 17.1426 37.0101 15.9713C35.4101 14.8001 33.5406 14.0509 31.5745 13.7929C29.6084 13.535 27.609 13.7766 25.7609 14.4955C23.9128 15.2144 22.2757 16.3873 21.0007 17.9061C19.7257 19.4248 18.8539 21.2403 18.4659 23.1849C18.0779 25.1296 18.1862 27.1406 18.7807 29.0324H19.129ZM28.8664 19.5854C28.8664 19.2723 28.9908 18.9719 29.2123 18.7504C29.4337 18.529 29.7341 18.4046 30.0473 18.4046C30.3605 18.4046 30.6608 18.529 30.8823 18.7504C31.1037 18.9719 31.2281 19.2723 31.2281 19.5854V24.3089H33.5899C33.9031 24.3089 34.2034 24.4333 34.4249 24.6548C34.6463 24.8762 34.7707 25.1766 34.7707 25.4898C34.7707 25.803 34.6463 26.1033 34.4249 26.3248C34.2034 26.5462 33.9031 26.6706 33.5899 26.6706H30.0473C29.7341 26.6706 29.4337 26.5462 29.2123 26.3248C28.9908 26.1033 28.8664 25.803 28.8664 25.4898V19.5854Z" fill="#FF7C03"/>
<path d="M44.1349 36.0694C43.9895 35.4869 43.6538 34.9696 43.1811 34.5996C42.7083 34.2295 42.1256 34.0278 41.5252 34.0265C41.4147 34.0285 41.3043 34.0364 41.1946 34.0501L34.4755 34.8885L34.7707 33.7549C34.7707 33.1285 34.5218 32.5278 34.0789 32.0849C33.636 31.642 33.0353 31.3932 32.4089 31.3932H28.4519C27.9445 31.3952 27.4401 31.3154 26.9581 31.157L26.7526 31.0885C25.0482 30.5202 23.2171 30.4498 21.4741 30.8854L19.4194 31.3932V39.6592L22.1472 41.029C23.4614 41.6801 24.9081 42.0196 26.3747 42.0209H32.5743C33.5896 42.0206 34.5983 41.8571 35.5619 41.5368L42.3754 39.2695C43.0177 39.0556 43.5556 38.6072 43.8818 38.014C44.208 37.4208 44.2984 36.7263 44.1349 36.0694Z" fill="#FF7C03"/>
<path d="M14.6969 29.0312H13.516C12.2117 29.0312 11.1543 30.0886 11.1543 31.393V39.659C11.1543 40.9634 12.2117 42.0208 13.516 42.0208H14.6969C16.0012 42.0208 17.0586 40.9634 17.0586 39.659V31.393C17.0586 30.0886 16.0012 29.0312 14.6969 29.0312Z" fill="#FF7C03"/>
</svg>
