<svg width="59" height="59" viewBox="0 0 59 59" fill="none" xmlns="http://www.w3.org/2000/svg">
<path d="M6.59225 35.9623C2.95132 23.3821 10.1975 10.2333 22.7777 6.59232C35.358 2.95139 48.5073 10.1993 52.1477 22.7778C55.7881 35.3563 48.5416 48.5071 35.9622 52.1478C23.3829 55.7885 10.2332 48.5426 6.59225 35.9623Z" fill="#FC603E"/>
<path d="M42.9777 25.2476C42.7626 24.0247 40.9347 23.3242 38.8984 23.6844L24.3217 26.2546L18.9173 21.4998L16.1499 21.9871L18.0489 27.3597L16.019 27.7179L16.2143 28.8254C18.8195 30.6512 21.9198 31.2441 24.8232 30.7322L26.763 30.3895L25.7728 35.1302L29.0937 34.544L35.619 28.8288L39.6788 28.1131C41.7151 27.7529 43.1939 26.4704 42.9777 25.2476Z" fill="white"/>
<path d="M42.9986 39.4861H16.019V41.7345H42.9986V39.4861Z" fill="white"/>
</svg>
