<svg width="291" height="168" viewBox="0 0 291 168" fill="none" xmlns="http://www.w3.org/2000/svg">
<path d="M1 65.5L61.4155 91.0559C72.891 95.9101 84.773 99.7409 96.9228 102.504L107.529 104.915C129.823 109.984 152.941 110.248 175.345 105.69V105.69C193.679 101.959 210.141 91.9601 221.904 77.4109L223.582 75.3352L232.97 63.7235C239.673 55.4332 242.724 44.7774 241.424 34.1962V34.1962C241.222 32.552 240.813 30.94 240.207 29.3984L239.932 28.6998C238.648 25.4353 237.005 22.2684 235.082 19.3344V19.3344C227.849 8.29544 213.388 4.0173 201.331 9.38422V9.38422C191.479 13.7695 185.001 23.688 185.001 34.4718V34.4718C185.001 43.5531 187.246 52.5614 191.537 60.565L203.707 83.2652V83.2652C216.111 102.721 231.298 120.255 248.784 135.309L252.811 138.775L283.987 162.565" stroke="#FFB703"/>
<path d="M272.415 161.75L275.602 164.077L277.473 165.407C279.012 166.501 280.811 167.171 282.689 167.348L283.466 167.421C284.077 167.479 284.692 167.439 285.29 167.304L285.454 167.267C287.438 166.82 289.012 165.318 289.554 163.356V163.356C290.001 161.734 289.686 159.993 288.695 158.627L288.207 157.954C287.919 157.556 287.591 157.189 287.229 156.857L281.728 151.818" stroke="#FFB703"/>
</svg>
