<svg width="285" height="157" viewBox="0 0 285 157" fill="none" xmlns="http://www.w3.org/2000/svg">
<path d="M1 59.5L61.4155 85.0559C72.891 89.9101 84.773 93.7409 96.9228 96.5035L107.529 98.9151C129.823 103.984 152.941 104.248 175.345 99.6895V99.6895C193.679 95.9589 210.141 85.9601 221.904 71.4109L223.582 69.3352L232.97 57.7235C239.673 49.4332 242.724 38.7774 241.424 28.1962V28.1962C241.222 26.552 240.813 24.94 240.207 23.3984L239.932 22.6998C238.648 19.4353 237.005 16.2684 235.082 13.3344V13.3344C227.849 2.29544 213.388 -1.9827 201.331 3.38422V3.38422C191.479 7.76952 185.001 17.688 185.001 28.4718V28.4718C185.001 37.5531 187.246 46.5614 191.537 54.565L203.707 77.2652V77.2652C216.111 96.721 231.298 114.255 248.784 129.309L252.811 132.775L283.987 156.565" stroke="#FFB703"/>
</svg>
