<svg width="41" height="41" viewBox="0 0 41 41" fill="none" xmlns="http://www.w3.org/2000/svg">
<circle cx="20.5" cy="20.5" r="20.5" fill="white"/>
<g clip-path="url(#clip0_497_6173)">
<path d="M21.4499 28.2805C20.6444 27.7048 19.5867 28.5419 19.2128 29.444C18.8876 30.2306 19.2882 30.9534 20.0931 31.1856C20.5426 31.3143 21.0229 31.2827 21.4517 31.0963C22.4408 30.63 22.3405 29.4823 21.8195 28.6805C21.7224 28.5252 21.597 28.3895 21.4499 28.2805Z" fill="#F3745A"/>
<path d="M28.3345 20.4969C28.0973 20.4978 27.8605 20.5175 27.6263 20.5559C26.7819 20.6681 25.96 20.9105 25.1899 21.2744C24.8026 21.4714 24.4415 21.717 24.0482 21.903C23.6519 22.0902 23.1571 22.0841 22.7929 22.32C22.5582 22.4649 22.3882 22.6945 22.3182 22.9613C22.2002 23.4629 22.5297 23.861 22.9443 24.0908C23.5479 24.4252 24.1583 24.7486 24.7522 25.0987C25.2537 25.3948 25.8154 25.8385 26.4355 25.7425C26.8732 25.6744 27.2531 25.2811 27.5783 25.0057C27.9969 24.6415 28.3947 24.2541 28.7698 23.8452C29.2257 23.3625 29.9133 22.8543 30.1479 22.2167C30.2098 22.0068 30.2109 21.7838 30.1512 21.5733C30.0915 21.3629 29.9734 21.1737 29.8105 21.0276C29.6125 20.8449 29.3798 20.7039 29.1263 20.6127C28.8728 20.5216 28.6036 20.4822 28.3345 20.4969Z" fill="#F3745A"/>
<path d="M34.6131 20.1967C34.6119 20.1585 34.6113 20.1208 34.6101 20.0831C34.6082 20.0211 34.6058 19.9585 34.6034 19.8964C34.5985 19.7925 34.5937 19.6885 34.5864 19.5852C34.5851 19.5627 34.5839 19.5414 34.5827 19.5189C34.5778 19.446 34.5718 19.3724 34.5657 19.2995L34.562 19.2575C34.2711 15.9698 32.8376 12.8879 30.5106 10.5472C28.1835 8.20652 25.1101 6.755 21.8241 6.44482C21.8113 6.4436 21.7986 6.44299 21.7858 6.44178C21.6667 6.43084 21.5463 6.42172 21.4259 6.41442C21.3919 6.41139 21.3585 6.40956 21.325 6.40774C21.2217 6.40227 21.1171 6.3968 21.0138 6.39315C20.9773 6.39193 20.9414 6.39072 20.9056 6.3895C20.7706 6.38586 20.6357 6.38281 20.5001 6.38281C20.3937 6.38281 20.2873 6.38464 20.1816 6.38707C20.1281 6.38828 20.074 6.39071 20.0199 6.39193C19.9737 6.39374 19.9281 6.39497 19.8831 6.3968C19.8022 6.40105 19.7214 6.4053 19.6411 6.40956C19.6326 6.41017 19.6253 6.41078 19.6168 6.41078C16.2482 6.62222 13.0669 8.0334 10.6492 10.3886C8.23158 12.7438 6.73764 15.8872 6.43813 19.249C6.40044 19.6581 6.38281 20.0502 6.38281 20.5001C6.38281 20.6101 6.38403 20.7201 6.38707 20.8296L6.39071 20.9475C6.39254 21.0168 6.39497 21.0861 6.39801 21.1554C6.40105 21.2046 6.40348 21.2533 6.40591 21.3025C6.40895 21.3603 6.41321 21.418 6.41685 21.4764C6.4205 21.5317 6.42415 21.5876 6.42901 21.6429C6.43266 21.6916 6.43692 21.7408 6.44178 21.7894C6.44725 21.8515 6.45272 21.9135 6.45941 21.9755C6.46366 22.0192 6.46914 22.063 6.47339 22.1074C6.47764 22.153 6.4819 22.1979 6.48798 22.2429L6.49892 22.3171C6.62203 23.286 6.84635 24.2393 7.16822 25.1615C7.16895 25.165 7.16997 25.1684 7.17126 25.1718C7.19801 25.2484 7.22597 25.3256 7.25454 25.4028C7.26427 25.4283 7.274 25.4539 7.28311 25.4794C7.30683 25.5432 7.33114 25.6065 7.35607 25.6691C7.37369 25.7153 7.39193 25.7603 7.41078 25.8052C7.42901 25.8514 7.44726 25.8976 7.4667 25.9426C8.76189 29.0571 11.1331 31.6024 14.1481 33.1146C14.157 33.1198 14.1661 33.1244 14.1755 33.1286C14.2466 33.1645 14.319 33.1997 14.3913 33.2338C14.4387 33.2569 14.4867 33.28 14.5342 33.3019C14.5573 33.3128 14.5804 33.3232 14.6028 33.3341C16.4528 34.183 18.4647 34.6208 20.5001 34.6174H20.508C20.6253 34.6174 20.7432 34.6155 20.86 34.6125C20.8788 34.6119 20.8964 34.6107 20.9141 34.6107C21.018 34.6077 21.1214 34.604 21.2235 34.5985C21.2284 34.5985 21.2332 34.5979 21.2381 34.5979C24.7223 34.4154 28.0155 32.9491 30.4824 30.4818C32.9494 28.0145 34.4152 24.7211 34.5973 21.2369C34.5979 21.2326 34.5979 21.2284 34.5985 21.2241C34.604 21.1208 34.6076 21.0168 34.6101 20.9122L34.6119 20.8606C34.6155 20.7414 34.6167 20.6211 34.6167 20.5007V20.5001C34.6168 20.3992 34.6155 20.2977 34.6131 20.1967ZM20.5001 32.7542C20.4484 32.7542 20.3974 32.7523 20.3463 32.7517C20.2849 32.7511 20.1487 32.6192 20.0964 32.5833C19.9992 32.5165 19.9027 32.4488 19.8071 32.3803C19.6265 32.2502 19.449 32.1152 19.2764 31.9748C18.8504 31.6447 18.4769 31.2521 18.1684 30.8102C17.5145 29.8195 17.6349 28.6724 18.2321 27.6861C18.6586 26.9819 19.3238 26.4272 19.8281 25.7754C20.403 25.0684 20.8387 24.2589 21.1122 23.3896C21.2334 23.0022 21.2611 22.5916 21.1931 22.1914C21.1251 21.7912 20.9633 21.4128 20.7209 21.0872C20.1331 20.3639 19.053 19.9761 18.1822 19.7487C18.0727 19.7201 17.9615 19.697 17.8496 19.6782C17.6023 19.6398 17.3531 19.6144 17.1031 19.6022C16.2009 19.5509 15.296 19.5702 14.3968 19.66C13.6077 19.7366 12.7785 19.9815 12.0314 19.5998C11.3871 19.2715 10.8071 18.829 10.0971 18.6442C9.54576 18.5186 8.98166 18.4578 8.41624 18.463C8.69233 16.8276 9.29746 15.2652 10.195 13.8705C11.0925 12.4758 12.2638 11.2778 13.6378 10.349C15.0119 9.42013 16.5602 8.77984 18.1889 8.46686C19.8177 8.15387 21.493 8.1747 23.1135 8.52809C23.1688 9.46244 24.0174 10.032 23.5803 11.0247C22.9907 12.3633 21.3293 12.7609 20.6496 14.0284C20.4929 14.3 20.4165 14.6106 20.4293 14.924C20.4421 15.2373 20.5436 15.5406 20.722 15.7986C20.9681 16.1846 21.193 16.5838 21.3955 16.9943C21.6916 17.567 22.0107 18.3153 22.5967 18.6527C24.311 19.6411 24.4496 16.5633 25.6283 16.3688C26.2642 16.2636 26.6235 16.6235 26.9232 17.1311C27.2806 17.7353 27.5669 18.2642 28.3219 18.4119C28.7979 18.48 29.2812 18.48 29.7572 18.4119C29.9918 18.3895 32.4958 17.9937 32.466 17.8594C32.8608 19.6497 32.8489 21.5059 32.4312 23.291C32.0134 25.0762 31.2005 26.7448 30.0523 28.1741C28.904 29.6034 27.4498 30.7569 25.7966 31.5495C24.1434 32.3422 22.3335 32.7538 20.5001 32.7541L20.5001 32.7542Z" fill="#F3745A"/>
</g>
<defs>
<clipPath id="clip0_497_6173">
<rect width="29" height="29" fill="white" transform="translate(6 6)"/>
</clipPath>
</defs>
</svg>
